<svg height="48" viewBox="0 0 48 48" width="48" xmlns="http://www.w3.org/2000/svg"><path d="m24 11.9c-.3 0-.6-.1-.8-.4l-5-5.9c-.4-.4-.3-1.1.1-1.4.4-.4 1.1-.3 1.4.1l3.3 3.9v-5.2c0-.6.4-1 1-1s1 .4 1 1v7.9c0 .4-.3.8-.7.9-.1.1-.2.1-.3.1z" fill="#455a64"/><path d="m24 11.9c-.2 0-.5-.1-.6-.2-.4-.4-.5-1-.1-1.4l5-5.9c.4-.4 1-.5 1.4-.1s.5 1 .1 1.4l-5 5.9c-.2.2-.5.3-.8.3z" fill="#455a64"/><path d="m24 10c-10 0-18 9-18 16.4 0 7.5 8.1 13.6 18 13.6s18-6.1 18-13.6c0-7.4-8-16.4-18-16.4z" fill="#ffd600"/><path d="m24 13c-10 0-18 6-18 13.4 0 7.5 8.1 13.6 18 13.6s18-6.1 18-13.6c0-7.4-8-13.4-18-13.4z" fill="#ffc107"/><path d="m6.1 28c0 .3.1.6.2.8 0 .1.1.3.1.4.1.3.2.7.3 1 .1.2.2.4.3.7.1.1.1.2.2.3.4.8.9 1.6 1.5 2.3 3.1 3.9 8.8 6.5 15.3 6.5s12.2-2.6 15.3-6.5c.6-.7 1.1-1.5 1.5-2.3.1-.1.1-.2.2-.3.1-.2.2-.4.3-.6.1-.3.2-.6.3-1 0-.1.1-.3.1-.4.1-.3.1-.6.2-.8 0-.1 0-.3.1-.4 0-.4.1-.8.1-1.2-3.2 4.2-4.1 2.1-4.1 2.1-.8-2.9-3.6-3.6-5.6-4-1.7-.4-2.8-.7-3.3-1.6-.7-1.3-2-3.6-4.9-3.8l-.2-.2h-.2c-2.9.3-4.1 2.5-4.9 3.8-.5.8-1.6 1.2-3.3 1.6-2 .5-4.8 1.1-5.6 4-.1.6-1.6 1.6-4-2 0 .4 0 .8.1 1.2z" fill="#ffa726"/><path d="m36 29c-1-3.5-6.8-1.8-8.7-5.2-.7-1.2-1.5-2.6-3.3-2.8-1.8.2-2.6 1.6-3.3 2.8-1.9 3.4-7.7 1.7-8.7 5.2s-2 6.2-2 10c0 7 8.2 7 14 7s14 0 14-7c0-3.8-1-6.5-2-10z" fill="#ffe0b2"/><path d="m19 21c0 1.7-1.3 3-3 3s-3-1.3-3-3 1.3-3 3-3c1.6 0 3 1.3 3 3z" fill="#fff"/><path d="m16 20c0 .6-.4 1-1 1s-1-.4-1-1 .4-1 1-1c.5 0 1 .4 1 1z" fill="#445963"/><path d="m35 21c0 1.7-1.3 3-3 3s-3-1.3-3-3 1.3-3 3-3c1.6 0 3 1.3 3 3z" fill="#fff"/><path d="m32 20c0 .6-.4 1-1 1s-1-.4-1-1 .4-1 1-1c.5 0 1 .4 1 1z" fill="#445963"/><path d="m26 29c-.6 0-1-.4-1-1v-1c0-.6.4-1 1-1s1 .4 1 1v1c0 .6-.4 1-1 1zm-4 0c-.6 0-1-.4-1-1v-1c0-.6.4-1 1-1s1 .4 1 1v1c0 .6-.4 1-1 1z" fill="#795548"/></svg>