<svg viewBox="0 0 5120 2883" xmlns="http://www.w3.org/2000/svg" fill-rule="evenodd" clip-rule="evenodd" stroke-linejoin="round" stroke-miterlimit="1.414"><g fill="#fff"><circle cx="3860.47" cy="1001.9" r="4.653"/><ellipse cx="3686.59" cy="1142.14" rx="4.232" ry="4.458"/><circle cx="4019.96" cy="1076.66" r="4.067"/><circle cx="4042.7" cy="1029.01" r="3.244"/><circle cx="4631.32" cy="1020.91" r="3.701"/><circle cx="4865.89" cy="1503.59" r="4.076"/><circle cx="5066.68" cy="804.345" r="2.444"/><circle cx="3618.87" cy="22.749" r="4.281"/><circle cx="4025.66" cy="43.644" r="5.449"/><circle cx="3496.64" cy="513.099" r="2.246"/><circle cx="3512.28" cy="522.791" r="2.679"/><circle cx="3459.72" cy="503.013" r="1.572"/><circle cx="3284.02" cy="510.093" r="3.442"/><circle cx="3389.78" cy="577.143" r="1.897"/><circle cx="3458.44" cy="579.196" r="2.159"/><circle cx="3307.39" cy="730.448" r="3.577"/><circle cx="3282.49" cy="730.399" r="2.872"/><circle cx="3261.65" cy="655.137" r="3.15"/><circle cx="3304.04" cy="882.973" r="3.313"/><circle cx="3248.73" cy="888.898" r="3.26"/><circle cx="3308.44" cy="854.322" r="1.834"/><circle cx="3162.65" cy="858.815" r="3.632"/><circle cx="3077.66" cy="790.709" r="3.63"/><circle cx="2986.72" cy="1072.79" r="4.076"/><circle cx="3137.98" cy="1217.38" r="2.629"/><circle cx="3021.13" cy="1342.46" r="4.864"/><circle cx="2732.16" cy="1404.48" r="2.481"/><circle cx="2659.72" cy="1613.06" r="2.153"/><circle cx="2670.49" cy="1712.46" r="3.337"/><circle cx="2774.58" cy="1677.43" r="3.803"/><circle cx="2589.78" cy="1503.22" r="3.87"/><circle cx="2646.4" cy="1382.28" r="4.407"/><circle cx="2438.73" cy="1259.81" r="3.135"/><circle cx="2233.55" cy="1208.97" r="2.84"/><circle cx="2173.27" cy="1378.83" r="2.931"/><circle cx="2246.24" cy="1403.59" r="3.007"/><circle cx="2790.51" cy="1265.17" r="2.831"/><circle cx="2848.68" cy="1263.18" r="2.137"/><circle cx="2804.93" cy="1387.53" r="3.19"/><circle cx="3365.3" cy="987.519" r="4.261"/><circle cx="3640.44" cy="1067.3" r="2.221"/><circle cx="3613.91" cy="1170.52" r="1.864"/><circle cx="3603.46" cy="1193.52" r="1.971"/><circle cx="3565.31" cy="853.991" r="4.662"/><circle cx="3497.49" cy="771.973" r="2.592"/><circle cx="3608.22" cy="752.752" r="2.599"/><circle cx="3254.13" cy="1048.94" r="1.749"/><circle cx="3180.6" cy="1092.43" r="1.89"/><circle cx="3964.96" cy="904.89" r="2.716"/><circle cx="3858.75" cy="919.439" r="2.028"/><circle cx="3890.12" cy="1065.46" r="2.82"/><circle cx="3881.18" cy="1194.45" r="1.76"/><circle cx="3787.19" cy="1118.26" r="1.519"/><circle cx="3057.04" cy="1599.03" r="4.234"/><circle cx="1753.95" cy="1148.03" r="4.993"/><circle cx="1635.66" cy="1025.29" r="3.223"/><circle cx="1730.04" cy="1059.35" r="1.824"/><circle cx="1729.77" cy="813.954" r="3.239"/><circle cx="1609.47" cy="737.444" r="3.781"/><circle cx="1633.11" cy="609.331" r="3.535"/><circle cx="1631.34" cy="653.497" r="1.858"/><circle cx="1738.45" cy="605.186" r="1.826"/><circle cx="1648.26" cy="627.072" r="1.833"/><circle cx="1469.56" cy="663.1" r="3.616"/><circle cx="1440.08" cy="661.873" r="1.604"/><circle cx="1347.35" cy="582.729" r="3.696"/><circle cx="1247.77" cy="649.23" r="2.672"/><circle cx="1328.59" cy="673.112" r="2.111"/><circle cx="1339.12" cy="792.042" r="2.756"/><circle cx="1088.43" cy="1158.68" r="3.278"/><circle cx="939.505" cy="1238.43" r="2.986"/><circle cx="1076.53" cy="1051.02" r="2.488"/><circle cx="1251.81" cy="1345.98" r="1.584"/><circle cx="1265.98" cy="1100.17" r="2.24"/><circle cx="1347.83" cy="1082.72" r="3.81"/><circle cx="1486.33" cy="1144.71" r="2.147"/><circle cx="1494.47" cy="1076.36" r="1.701"/><circle cx="1492.03" cy="1045.7" r="2.205"/><circle cx="1502.36" cy="1191.62" r="2.869"/><circle cx="1288.55" cy="985.555" r="2.287"/><circle cx="2052.12" cy="834.387" r="4.293"/><circle cx="2089.07" cy="861.501" r="2.606"/><circle cx="2062.76" cy="892.749" r="3.761"/><circle cx="1970.36" cy="927.37" r="2.885"/><circle cx="1912.29" cy="1009.26" r="3.671"/><circle cx="1854.58" cy="917.936" r="3.085"/><circle cx="2182.57" cy="892.862" r="1.499"/><circle cx="1940.47" cy="730.299" r="4.011"/><circle cx="1957.28" cy="323.899" r="4.634"/><circle cx="1915.96" cy="457.371" r="2.261"/><circle cx="1773.39" cy="421.594" r="3.322"/><circle cx="1655.4" cy="414.262" r="4.731"/><circle cx="1704.89" cy="437.034" r="1.719"/><circle cx="1778.58" cy="334.164" r="2.323"/><circle cx="1555.08" cy="274.971" r="3.107"/><circle cx="1516.08" cy="420.551" r="3.802"/><circle cx="1541.68" cy="474.17" r="2.542"/><circle cx="1457.2" cy="507.761" r="2.366"/><circle cx="1464.71" cy="328.943" r="3.613"/><circle cx="1231.42" cy="322.234" r="4.117"/><circle cx="1212.93" cy="383.373" r="1.855"/><circle cx="1175.18" cy="362.444" r="1.545"/><circle cx="1245.13" cy="231.199" r="1.289"/><circle cx="1389.79" cy="206.796" r="2.229"/><circle cx="1419.93" cy="128.443" r="3.284"/><circle cx="1397.22" cy="141.956" r="1.703"/><circle cx="1661.63" cy="158.99" r="3.354"/><circle cx="1568.82" cy="115.696" r="1.622"/><circle cx="1486.71" cy="108.009" r="3.731"/><circle cx="1526.39" cy="38.028" r=".783"/><circle cx="1675.69" cy="30.365" r="1.775"/><circle cx="1708.98" cy="44.36" r="1.209"/><circle cx="1743.65" cy="77.871" r="2.075"/><circle cx="1687.53" cy="83.878" r="1.787"/><circle cx="1755.01" cy="236.354" r="3.358"/><circle cx="1850.64" cy="63.032" r="2.156"/><circle cx="1828.16" cy="13.541" r="1.79"/><circle cx="1987.02" cy="224.146" r="2.567"/><circle cx="2053.98" cy="61.636" r="1.686"/><circle cx="2184" cy="90.17" r="2.09"/><circle cx="2236.13" cy="85.749" r="2.509"/><circle cx="2278.23" cy="13.163" r="1.75"/><circle cx="2255.93" cy="5.926" r="1.811"/><circle cx="2250.2" cy="264.017" r="2.076"/><circle cx="2387.77" cy="247.113" r="2.163"/><circle cx="2190.4" cy="450.891" r="4.74"/><circle cx="2217.8" cy="440.764" r="2.561"/><circle cx="2169.06" cy="485.753" r="1.922"/><circle cx="2168.39" cy="435.261" r="2.28"/><circle cx="2261.76" cy="460.636" r="1.65"/><circle cx="2134.66" cy="358.775" r="2.594"/><circle cx="2051.53" cy="404.248" r="3.184"/><circle cx="2147.15" cy="597.008" r="2.804"/><circle cx="1973.7" cy="563.282" r="2.267"/><circle cx="2007.87" cy="559.612" r="2.428"/><circle cx="2031.88" cy="508.031" r="1.889"/><circle cx="2011.21" cy="609.658" r="2.91"/><circle cx="2364.81" cy="513.749" r="4.455"/><circle cx="2365.17" cy="428.86" r="2.165"/><circle cx="2325.02" cy="430.316" r="2.766"/><circle cx="2378.67" cy="550.668" r="2.64"/><circle cx="2583.19" cy="585.56" r="2.835"/><circle cx="2636.25" cy="691.757" r="3.607"/><circle cx="2847.5" cy="581.762" r="3.236"/><circle cx="2780.66" cy="546.876" r="2.889"/><circle cx="2745.47" cy="479.871" r="2.628"/><circle cx="2759.03" cy="467.479" r="1.209"/><circle cx="2894.39" cy="479.66" r="3.152"/><circle cx="2913.93" cy="585.845" r="3.766"/><circle cx="2967.2" cy="542.911" r="1.637"/><circle cx="2926.03" cy="687.673" r="3.21"/><circle cx="2810.17" cy="876.11" r="2.438"/><circle cx="2719.74" cy="922.88" r="2.183"/><circle cx="2582.97" cy="901.321" r="2.532"/><circle cx="3021.49" cy="531.51" r="3.039"/><circle cx="3045.66" cy="512.068" r="2.166"/><circle cx="3062.11" cy="529.751" r="1.704"/><circle cx="3104.2" cy="567.772" r="2.625"/><circle cx="3038.81" cy="617.077" r="3.537"/><circle cx="2059.75" cy="1356.94" r="6.712"/><circle cx="1966.62" cy="1177.84" r="4.313"/><circle cx="2076.6" cy="1148.99" r="3.404"/><circle cx="2263.48" cy="1012.34" r="4.746"/><circle cx="4553.4" cy="154.595" r="2.958"/><circle cx="4621.78" cy="476.261" r="2.746"/><circle cx="1060.78" cy="647.015" r="4.318"/><circle cx="1160.49" cy="474.399" r="4.608"/><circle cx="408.118" cy="641.237" r="3.732"/><circle cx="113.236" cy="870.265" r="3.968"/><circle cx="101.297" cy="928.179" r="2.322"/><circle cx="159.268" cy="1220.84" r="3.212"/><circle cx="334.881" cy="1199.33" r="2.626"/><circle cx="804.509" cy="1043.82" r="2.868"/><circle cx="678.033" cy="1012.42" r="2.328"/><circle cx="1179" cy="814.572" r="2.975"/><circle cx="1231.87" cy="1211.15" r="3.847"/><circle cx="1425.67" cy="1009.58" r="2.838"/><circle cx="1619.14" cy="1395.84" r="2.337"/><circle cx="1751.24" cy="1428.98" r="1.983"/><circle cx="1132.29" cy="1584.93" r="2.443"/><circle cx="753.826" cy="1428.98" r="1.983"/><circle cx="768.487" cy="1479" r="1.69"/><circle cx="671.569" cy="1568.86" r="1.924"/><circle cx="550.502" cy="902.827" r="2.24"/><circle cx="1004.68" cy="277.889" r="2.577"/><circle cx="999.907" cy="350.555" r="2.2"/><circle cx="988.27" cy="188.465" r="2.257"/><circle cx="1136.82" cy="230.745" r="2.085"/><circle cx="609.791" cy="44.479" r="1.641"/><circle cx="248.909" cy="397.514" r="2.306"/><circle cx="241.946" cy="528.157" r="2.242"/><circle cx="158.903" cy="704.696" r="1.905"/><circle cx="18.255" cy="689.33" r="1.815"/><circle cx="14.469" cy="636.609" r="1.773"/><circle cx="2847.62" cy="893.467" r="4.14"/><circle cx="2699.86" cy="992.264" r="2.078"/><circle cx="2664.91" cy="1052.44" r="1.99"/><circle cx="2801.54" cy="911.965" r="2.257"/><circle cx="2676.33" cy="796.423" r="2.609"/><circle cx="2509.72" cy="796.414" r="3.926"/><circle cx="2467.54" cy="950.901" r="2.393"/><circle cx="2477.37" cy="845.852" r="2.113"/><circle cx="2537.68" cy="383.147" r="4.307"/><circle cx="2694.44" cy="410.896" r="3.092"/><circle cx="2663.57" cy="331.703" r="3.291"/><circle cx="2667.97" cy="301.466" r="3.357"/><circle cx="2673.36" cy="355.255" r="2.403"/><circle cx="2734.81" cy="365.432" r="1.783"/><circle cx="2557.69" cy="197.526" r="4.101"/><circle cx="2480.53" cy="167.365" r="1.581"/><circle cx="2433.71" cy="177.203" r="1.495"/><circle cx="2708.48" cy="123.198" r="2.165"/><circle cx="2666.42" cy="143.363" r="1.698"/><circle cx="2556.64" cy="63.171" r="2.405"/><circle cx="2512.76" cy="107.514" r="2.186"/><circle cx="2847.31" cy="148.015" r="2.87"/><circle cx="2852.18" cy="201.299" r="1.852"/><circle cx="2937.27" cy="434.39" r="3.758"/><circle cx="2811.38" cy="392.061" r="3.417"/><circle cx="2854.92" cy="342.274" r="2.02"/><circle cx="2900.57" cy="371.503" r="2.474"/><circle cx="3002.45" cy="331.481" r="3.936"/><circle cx="3051.41" cy="284.312" r="3.02"/><circle cx="3124.13" cy="251.489" r="2.612"/><circle cx="3060.78" cy="171.508" r="2.392"/><circle cx="3129.96" cy="78.419" r="4.333"/><circle cx="3167.95" cy="105.54" r="2.232"/><circle cx="3492.77" cy="389.087" r="3.877"/><circle cx="3619.62" cy="468.31" r="3.753"/><circle cx="3666.2" cy="392.941" r="3.58"/><circle cx="3655.18" cy="247.366" r="2.937"/><circle cx="3855.2" cy="142.15" r="1.989"/><circle cx="3804.06" cy="99.656" r="1.837"/><circle cx="3927.8" cy="116.721" r="1.996"/><circle cx="4171.89" cy="425.527" r="3.031"/><circle cx="4362.54" cy="320.303" r="1.96"/><circle cx="4394.13" cy="408.238" r="2.863"/><circle cx="4869.88" cy="555.622" r="2.144"/><circle cx="4769.8" cy="627.892" r="1.995"/><circle cx="4840.64" cy="461.404" r="1.908"/><circle cx="4721.01" cy="322.796" r="2.476"/><circle cx="4674.98" cy="240.314" r="2.203"/><circle cx="4615.51" cy="106.181" r="2.431"/><circle cx="4637.48" cy="128.969" r="1.529"/><circle cx="4678.64" cy="22.847" r="2.163"/><circle cx="4897.17" cy="24.131" r="4.477"/><circle cx="5060.31" cy="693.368" r="1.182"/><circle cx="4704.67" cy="912.679" r="1.332"/><circle cx="4699.76" cy="831.586" r="1.074"/><circle cx="4610.88" cy="946.144" r="1.241"/><circle cx="4638.74" cy="945.802" r="1.211"/><circle cx="4407.12" cy="988.431" r="1.477"/><circle cx="4378.22" cy="935.611" r="3.292"/><circle cx="4272.66" cy="1016.31" r="2.986"/><circle cx="4328.1" cy="894.081" r="2.995"/><circle cx="4146.18" cy="1014.84" r="2.215"/><circle cx="4280.19" cy="1160.72" r="2.261"/><circle cx="4393.03" cy="1121.88" r="2.042"/><circle cx="4220.88" cy="1341.93" r="3.217"/><circle cx="4473.84" cy="1275.93" r="1.346"/><circle cx="4598.37" cy="1285.36" r="3.122"/><circle cx="4672.96" cy="1434.78" r="2.266"/><circle cx="4816.3" cy="1412.17" r="1.816"/><circle cx="4884.58" cy="1365.85" r="1.618"/><circle cx="4734.16" cy="1485.17" r="1.667"/><circle cx="4816.38" cy="1149.74" r="1.738"/><circle cx="4997.34" cy="1263.47" r="2.238"/><circle cx="5084.41" cy="994.98" r="1.978"/><circle cx="4986.43" cy="917.579" r="2.374"/><circle cx="4664.86" cy="540.705" r="2.802"/><circle cx="4286.11" cy="817.136" r="2.119"/><circle cx="4427.71" cy="648.988" r="2.019"/><circle cx="4403.2" cy="654.318" r="2.564"/><circle cx="4085.92" cy="711.543" r="4.585"/><circle cx="3966.58" cy="668.746" r="3.289"/><circle cx="4021.7" cy="546.818" r="2.235"/><circle cx="4183.22" cy="644.981" r="2.007"/><circle cx="4104.44" cy="804.652" r="1.904"/><circle cx="3928.2" cy="784.4" r="4.88"/><circle cx="3992.66" cy="828.492" r="2.139"/><circle cx="4133.33" cy="840.787" r="2.196"/><circle cx="4068.87" cy="500.821" r="2.353"/><circle cx="4048.15" cy="476.337" r="1.644"/><circle cx="4033.08" cy="490.873" r="1.551"/><circle cx="3936.98" cy="487.359" r="1.787"/><circle cx="3868.46" cy="455.922" r="2.346"/><circle cx="3744.11" cy="534.369" r="3.605"/><circle cx="3766.89" cy="482.298" r="1.738"/><circle cx="3982.38" cy="354.059" r="2.47"/><circle cx="4310.91" cy="198.31" r="1.398"/><circle cx="4311.3" cy="180.273" r="1.466"/><circle cx="4454.74" cy="201.078" r="1.437"/><circle cx="4391.12" cy="43.304" r="1.381"/><circle cx="4081.34" cy="198.713" r="1.765"/><circle cx="3972.7" cy="216.676" r="1.768"/><circle cx="4197.24" cy="113.911" r="1.209"/><circle cx="2929.11" cy="924.209" r="2.061"/><circle cx="1224.49" cy="795.472" r="1.892"/><circle cx="1246.92" cy="813.646" r="1.886"/><circle cx="1062.04" cy="765.225" r="1.881"/><circle cx="967.339" cy="815.89" r="1.715"/><circle cx="936.332" cy="888.893" r="1.393"/><circle cx="1298.22" cy="739.115" r="2.135"/><circle cx="1314.56" cy="755.222" r="2.678"/><circle cx="1367.74" cy="474.087" r="2.026"/><circle cx="1362.05" cy="429.257" r="2.086"/><circle cx="1131.07" cy="525.137" r="1.865"/><circle cx="1038.13" cy="491.977" r="2.588"/><circle cx="822.365" cy="289.153" r="1.342"/><circle cx="719.256" cy="282.321" r="2.203"/><circle cx="690.888" cy="192.186" r="2.78"/><circle cx="711.36" cy="69.702" r="1.422"/><circle cx="870.961" cy="168.78" r="2.399"/><circle cx="1356.86" cy="151.817" r="2.482"/><circle cx="1282.88" cy="65.144" r="1.957"/><circle cx="1241.62" cy="13.36" r="1.507"/><circle cx="1309.67" cy="239.345" r="1.569"/><circle cx="1407.23" cy="274.586" r="1.764"/><circle cx="1449.92" cy="270.178" r="1.714"/><circle cx="1247.4" cy="514.246" r="2.995"/><circle cx="542.591" cy="454.433" r="2.008"/><circle cx="497.62" cy="349.854" r="3.206"/><circle cx="729.509" cy="375.615" r="2.536"/><circle cx="769.963" cy="389.852" r=".914"/><circle cx="801.437" cy="621.49" r="4.129"/><circle cx="783.393" cy="571.615" r="2.586"/><circle cx="611.259" cy="610.682" r="2.085"/><circle cx="450.327" cy="1242.04" r="4.411"/><circle cx="524.606" cy="1248.48" r="2.422"/><circle cx="744.053" cy="1221.36" r="4.604"/><circle cx="762.97" cy="1284.57" r="3.828"/><circle cx="551.644" cy="1350.56" r="3.508"/><circle cx="646.588" cy="1173" r="3.182"/><circle cx="244.056" cy="1406.63" r="3.345"/><circle cx="397.404" cy="1043.37" r="4.457"/><circle cx="409.013" cy="875.476" r="1.683"/><circle cx="479.629" cy="827.324" r="2.014"/><circle cx="143.366" cy="660.365" r="2.356"/><circle cx="190.917" cy="630.875" r="3.025"/><circle cx="168.414" cy="515.282" r="2.573"/><circle cx="69.166" cy="205.229" r="2.376"/><circle cx="207.386" cy="290.822" r="1.615"/><circle cx="65.365" cy="8.574" r="4.185"/><circle cx="337.555" cy="149.479" r="2.6"/><circle cx="299.872" cy="265.808" r=".968"/><circle cx="439.57" cy="57.692" r="2.015"/><circle cx="589.162" cy="108.14" r="3.758"/><circle cx="637.829" cy="208.708" r="1.655"/><circle cx="600.224" cy="365.505" r="3.729"/><circle cx="720.154" cy="892.748" r="2.896"/><circle cx="691.718" cy="748.858" r="2.388"/><circle cx="908.965" cy="478.108" r="2.266"/><circle cx="1052.68" cy="417.835" r="2.659"/><circle cx="1093.33" cy="351.44" r="1.643"/><circle cx="1395.81" cy="668.901" r="3.965"/><circle cx="1405.67" cy="687.367" r="5.308"/><circle cx="1802.89" cy="848.305" r="3.991"/><circle cx="1899" cy="815.013" r="2.978"/><circle cx="1894.85" cy="713.083" r="3.487"/><circle cx="1920.12" cy="625.109" r="2.065"/><circle cx="2815.9" cy="45.844" r="2.008"/><circle cx="2915.6" cy="76.399" r="2.279"/><circle cx="2918.82" cy="103.625" r="3.401"/><circle cx="2988.74" cy="150.779" r="3.121"/><circle cx="3221.19" cy="6.675" r="2.541"/><circle cx="3465.59" cy="285.025" r="4.495"/><circle cx="3454.5" cy="195.996" r="2.749"/><circle cx="3257.94" cy="416.266" r="2.979"/><circle cx="3206.38" cy="446.987" r="3.191"/><circle cx="3187.04" cy="405.261" r="3.946"/><circle cx="3553.59" cy="62.779" r="3.502"/><circle cx="3602.89" cy="116.247" r="2.436"/><circle cx="3750.18" cy="877.05" r="3.904"/><circle cx="2239.82" cy="759.261" r="3.592"/><circle cx="2075.15" cy="799.273" r="3.434"/><circle cx="2314.2" cy="863.126" r="3.046"/><circle cx="2797.33" cy="814.021" r="4.825"/><circle cx="2915.84" cy="742.389" r="2.342"/><circle cx="3045.15" cy="685.794" r="3.059"/><circle cx="2961.52" cy="1031.8" r="4.239"/><circle cx="2989.4" cy="1146.96" r="2.697"/><circle cx="2726.42" cy="1164.75" r="1.285"/><circle cx="3717.1" cy="603.287" r="2.208"/><circle cx="4677.92" cy="1136.3" r="1.632"/><circle cx="4261.2" cy="269.049" r="2.825"/><circle cx="3071.21" cy="337.611" r="1.966"/><circle cx="3046.24" cy="368.016" r="1.05"/><circle cx="3334.34" cy="233.135" r="2.141"/><circle cx="2661.65" cy="35.794" r="4.06"/></g></svg>