<?xml version="1.0" encoding="UTF-8" standalone="no"?><!DOCTYPE svg PUBLIC "-//W3C//DTD SVG 1.1//EN" "http://www.w3.org/Graphics/SVG/1.1/DTD/svg11.dtd"><svg width="100%" height="100%" viewBox="0 0 5120 1158" version="1.1" xmlns="http://www.w3.org/2000/svg" xmlns:xlink="http://www.w3.org/1999/xlink" xml:space="preserve" xmlns:serif="http://www.serif.com/" style="fill-rule:evenodd;clip-rule:evenodd;stroke-linejoin:round;stroke-miterlimit:1.41421;"><g id="Wüste-Mitte" serif:id="Wüste Mitte"><path d="M-70.949,0.136c0,0 324.424,63.418 453.016,125.982c128.591,62.565 156.312,82.123 363.918,144.673c207.607,62.55 262.23,119.463 511.854,171.59c249.625,52.128 525.292,70.819 620.269,79.507c94.977,8.688 749.706,53.009 814.424,64.733c64.718,11.723 244.577,290.633 360.563,392.719c115.985,102.087 -495.88,426.59 -858.966,463.091c-363.086,36.5 -1865.85,90.796 -1865.85,90.796l-778.285,-55.163l-130.27,-944.886l509.331,-533.042" style="fill:url(#_Linear1);"/></g><defs><linearGradient id="_Linear1" x1="0" y1="0" x2="1" y2="0" gradientUnits="userSpaceOnUse" gradientTransform="matrix(277.982,-987.735,987.735,277.982,376.166,1337.33)"><stop offset="0" style="stop-color:#170000;stop-opacity:1"/><stop offset="0.86" style="stop-color:#491706;stop-opacity:1"/><stop offset="1" style="stop-color:#491e08;stop-opacity:1"/></linearGradient></defs></svg>