<svg height="48" viewBox="0 0 48 48" width="48" xmlns="http://www.w3.org/2000/svg"><path d="m19.5 13c-2.483 0-4.5-2.018-4.5-4.5 0-2.483 2.017-4.5 4.5-4.5s4.5 2.017 4.5 4.5c0 2.482-2.017 4.5-4.5 4.5" fill="#ffb74d"/><path d="m24 29v2h-9l-3-2v-7.5c0-4.142 3.358-7.5 7.5-7.5 2.5 2 2.5 2 4.5 5z" fill="#4fc3f7"/><path d="m29.5 13c-2.483 0-4.5-2.018-4.5-4.5 0-2.483 2.017-4.5 4.5-4.5s4.5 2.017 4.5 4.5c0 2.482-2.017 4.5-4.5 4.5" fill="#ffb74d"/><path d="m37 29-3 2h-9l-3-2v-10.396c0-2.543 2.061-4.604 4.604-4.604h2.896c4.142 0 7.5 3.358 7.5 7.5z" fill="#2196f3"/><path d="m15 31 2-13 8.154-2-2.154 28h-7z" fill="#4fc3f7"/><path d="m25 31 4.572-2.333 4.428 2.333-1 13h-7z" fill="#2196f3"/><g fill="#4fc3f7"><path d="m19 14h12.312v4h-12.312z"/><path d="m35.845 15.801-4.534 2.189-1.739-3.602 4.534-2.189c.995-.48 2.19-.063 2.671.931.48.995.063 2.191-.932 2.671z"/></g></svg>