<?xml version="1.0" encoding="UTF-8" standalone="no"?><!DOCTYPE svg PUBLIC "-//W3C//DTD SVG 1.1//EN" "http://www.w3.org/Graphics/SVG/1.1/DTD/svg11.dtd"><svg width="100%" height="100%" viewBox="0 0 326 267" version="1.1" xmlns="http://www.w3.org/2000/svg" xmlns:xlink="http://www.w3.org/1999/xlink" xml:space="preserve" style="fill-rule:evenodd;clip-rule:evenodd;stroke-linejoin:round;stroke-miterlimit:1.41421;"><g id="Ebene-1"><g><rect x="310.361" y="1.156" width="14.658" height="111.07" style="fill:#f49f23;fill-rule:nonzero;"/><path d="M279.088,101.427l5.635,0l1.029,-1.029l0,-24.563l-1.029,-1.029l-5.635,0c-3.307,0 -6.477,2.103 -6.477,5.219l0,16.038c0,3.24 3.145,5.364 6.477,5.364m7.813,5.923l-1.491,-0.256l-6.669,5.13c-11.734,-0.143 -20.788,-7.509 -20.788,-16.161l0,-16.038c0,-8.588 9.227,-16.019 21.135,-16.019l5.635,0l1.029,-1.03l0,-21.239c0,-3.133 -3.195,-5.22 -6.664,-5.22c-3.307,0 -6.477,2.105 -6.477,5.22l0,10.529l-14.658,0l0,-10.529c0,-8.587 9.227,-16.019 21.135,-16.019c12.102,0 21.322,7.436 21.322,16.019l0,70.489l-3.103,0c-4.613,0 -8.569,-2.05 -10.406,-4.876" style="fill:#f49f23;"/><path d="M235.404,86.401l14.658,0l0,10.528c0,8.734 -9.226,16.165 -21.323,16.165c-11.901,0 -21.134,-7.426 -21.134,-16.165l0,-55.192c0,-8.587 9.227,-16.019 21.134,-16.019c12.103,0 21.323,7.436 21.323,16.019l0,10.53l-14.658,0l0,-10.53c0,-3.133 -3.195,-5.219 -6.665,-5.219c-3.306,0 -6.476,2.105 -6.476,5.219l0,55.192c0,3.078 3.121,5.366 6.476,5.366c3.519,0 6.665,-2.269 6.665,-5.366l0,-10.528Z" style="fill:#f49f23;"/><rect x="182.996" y="26.441" width="14.657" height="85.786" style="fill:#f49f23;"/><path d="M190.701,12.968c-4.958,0 -8.55,-3.097 -8.55,-6.339c0,-3.398 3.606,-6.484 8.55,-6.484c4.944,0 8.549,3.086 8.549,6.484c0,3.242 -3.591,6.339 -8.549,6.339" style="fill:#f29400;"/><path d="M173.732,84.504l0,12.425c0,8.733 -9.227,16.165 -21.323,16.165c-11.901,0 -21.135,-7.427 -21.135,-16.165l0,-10.529l14.659,0l0,10.529c0,3.078 3.121,5.365 6.476,5.365c3.518,0 6.665,-2.269 6.665,-5.365l0,-12.425c0,-1.549 -0.775,-2.837 -2.091,-3.85l-19.543,-15.175c-4.273,-3.151 -6.166,-6.91 -6.166,-11.316l0,-12.426c0,-8.587 9.228,-16.019 21.135,-16.019c12.102,0 21.323,7.436 21.323,16.019l0,10.529l-14.658,0l0,-10.529c0,-3.133 -3.196,-5.22 -6.665,-5.22c-3.307,0 -6.476,2.105 -6.476,5.22l0,12.426c0,1.641 0.729,2.946 1.903,3.85l19.724,15.17c4.119,3.17 6.172,6.934 6.172,11.321" style="fill:#f49f23;"/><path d="M122.696,26.44l0,85.786l-3.103,0c-4.613,0 -8.569,-2.05 -10.406,-4.876l-1.491,-0.256l-6.669,5.13c-11.734,-0.143 -20.788,-7.509 -20.788,-16.161l0,-69.623l14.658,0l0,69.623c0,3.24 3.146,5.364 6.477,5.364l5.634,0l1.03,-1.029l0,-73.958l14.658,0Z" style="fill:#f49f23;"/><path d="M70.288,112.226l-14.658,0l0,-96.206c0,-3.116 -3.17,-5.22 -6.476,-5.22c-3.47,0 -6.665,2.086 -6.665,5.22l0,96.206l-14.658,0l0,-96.206c0,-3.116 -3.17,-5.22 -6.477,-5.22c-3.469,0 -6.664,2.086 -6.664,5.22l0,96.206l-14.658,0l0,-97.94c0,-7.716 8.28,-14.286 18.881,-14.286c6.525,0 12.062,2.372 15.407,5.893l0.746,0.32l0.188,0l0.728,-0.301c3.546,-3.546 9.098,-5.912 15.426,-5.912c10.78,0 18.88,6.565 18.88,14.286l0,97.94Z" style="fill:#f49f23;"/><path d="M324.997,266.531l-17.716,0l0,-52.125c0,-3.538 -3.903,-5.869 -8.108,-5.869l-6.604,0l-1.276,1.185l0,56.809l-17.717,0l0,-124.441l17.717,0l0,53.255l1.276,1.185l6.604,0c4.265,0 8.108,-2.536 8.108,-6.032l0,-48.408l17.716,0l0,46.47c0,5.106 -3.493,9.764 -9.348,12.687l-0.673,1.045l0,0.321l0.673,1.046c5.855,2.921 9.348,7.58 9.348,12.686l0,50.186Z" style="fill:#58585a;"/><rect x="241.11" y="142.09" width="17.717" height="124.441" style="fill:#58585a;"/><path d="M201.843,154.096l-6.605,0l-1.276,1.186l0,40.062l1.276,1.186l6.605,0c4.264,0 8.107,-2.535 8.107,-6.032l0,-30.531c0,-3.539 -3.903,-5.871 -8.107,-5.871m25.824,112.435l-17.717,0l0,-52.125c0,-3.538 -3.903,-5.87 -8.107,-5.87l-6.605,0l-1.276,1.186l0,56.809l-17.716,0l0,-124.441l25.597,0c14.675,0 25.824,8.314 25.824,17.877l0,28.593c0,5.105 -3.495,9.765 -9.348,12.686l-0.673,1.046l0,0.321l0.673,1.046c5.853,2.921 9.348,7.58 9.348,12.686l0,50.186Z" style="fill:#58585a;"/><path d="M145.086,248.492l0,-34.087c0,-3.537 -3.904,-5.868 -8.109,-5.868l-6.604,0l-1.275,1.185l0,43.616l1.275,1.186l6.604,0c4.236,0 8.109,-2.354 8.109,-6.032m0,-57.994l0,-30.531c0,-3.539 -3.904,-5.871 -8.109,-5.871l-6.604,0l-1.275,1.186l0,40.063l1.275,1.185l6.604,0c4.264,0 8.109,-2.536 8.109,-6.032m-8.109,76.033l-25.596,0l0,-124.441l25.596,0c14.676,0 25.824,8.314 25.824,17.877l0,28.593c0,5.105 -3.493,9.771 -9.371,12.86l-0.648,1.033l0,0.16l0.671,1.046c5.855,2.921 9.348,7.58 9.348,12.686l0,32.147c0,9.73 -11.156,18.039 -25.824,18.039" style="fill:#58585a;"/><path d="M63.382,158.997l0,36.348l1.275,1.185l13.437,0l1.276,-1.185l0,-36.348c0,-3.538 -3.904,-5.87 -8.109,-5.87c-4.006,0 -7.879,2.353 -7.879,5.87m33.704,107.534l-17.716,0l0,-56.809l-1.276,-1.185l-13.437,0l-1.275,1.185l0,56.809l-17.717,0l0,-107.534c0,-9.569 11.157,-17.875 25.596,-17.875c14.676,0 25.825,8.313 25.825,17.875l0,107.534Z" style="fill:#58585a;"/><path d="M17.561,266.531l-17.561,0l0,-123.355l37.653,0l0,11.901l-20.092,0l0,42.064l20.092,0l0,11.902l-20.092,0l0,57.488Z" style="fill:#58585a;"/><rect x="0" y="120.05" width="324.997" height="14.035" style="fill:#58585a;"/></g></g></svg>