<svg clip-rule="evenodd" fill-rule="evenodd" stroke-linejoin="round" stroke-miterlimit="1.41421" viewBox="0 0 326 267" xmlns="http://www.w3.org/2000/svg"><path d="m310.361 1.156h14.658v111.07h-14.658z" fill="#f49f23" fill-rule="nonzero"/><path d="m279.088 101.427h5.635l1.029-1.029v-24.563l-1.029-1.029h-5.635c-3.307 0-6.477 2.103-6.477 5.219v16.038c0 3.24 3.145 5.364 6.477 5.364m7.813 5.923-1.491-.256-6.669 5.13c-11.734-.143-20.788-7.509-20.788-16.161v-16.038c0-8.588 9.227-16.019 21.135-16.019h5.635l1.029-1.03v-21.239c0-3.133-3.195-5.22-6.664-5.22-3.307 0-6.477 2.105-6.477 5.22v10.529h-14.658v-10.529c0-8.587 9.227-16.019 21.135-16.019 12.102 0 21.322 7.436 21.322 16.019v70.489h-3.103c-4.613 0-8.569-2.05-10.406-4.876" fill="#f49f23"/><path d="m235.404 86.401h14.658v10.528c0 8.734-9.226 16.165-21.323 16.165-11.901 0-21.134-7.426-21.134-16.165v-55.192c0-8.587 9.227-16.019 21.134-16.019 12.103 0 21.323 7.436 21.323 16.019v10.53h-14.658v-10.53c0-3.133-3.195-5.219-6.665-5.219-3.306 0-6.476 2.105-6.476 5.219v55.192c0 3.078 3.121 5.366 6.476 5.366 3.519 0 6.665-2.269 6.665-5.366z" fill="#f49f23"/><path d="m182.996 26.441h14.657v85.786h-14.657z" fill="#f49f23"/><path d="m190.701 12.968c-4.958 0-8.55-3.097-8.55-6.339 0-3.398 3.606-6.484 8.55-6.484s8.549 3.086 8.549 6.484c0 3.242-3.591 6.339-8.549 6.339" fill="#f29400"/><path d="m173.732 84.504v12.425c0 8.733-9.227 16.165-21.323 16.165-11.901 0-21.135-7.427-21.135-16.165v-10.529h14.659v10.529c0 3.078 3.121 5.365 6.476 5.365 3.518 0 6.665-2.269 6.665-5.365v-12.425c0-1.549-.775-2.837-2.091-3.85l-19.543-15.175c-4.273-3.151-6.166-6.91-6.166-11.316v-12.426c0-8.587 9.228-16.019 21.135-16.019 12.102 0 21.323 7.436 21.323 16.019v10.529h-14.658v-10.529c0-3.133-3.196-5.22-6.665-5.22-3.307 0-6.476 2.105-6.476 5.22v12.426c0 1.641.729 2.946 1.903 3.85l19.724 15.17c4.119 3.17 6.172 6.934 6.172 11.321" fill="#f49f23"/><path d="m122.696 26.44v85.786h-3.103c-4.613 0-8.569-2.05-10.406-4.876l-1.491-.256-6.669 5.13c-11.734-.143-20.788-7.509-20.788-16.161v-69.623h14.658v69.623c0 3.24 3.146 5.364 6.477 5.364h5.634l1.03-1.029v-73.958z" fill="#f49f23"/><path d="m70.288 112.226h-14.658v-96.206c0-3.116-3.17-5.22-6.476-5.22-3.47 0-6.665 2.086-6.665 5.22v96.206h-14.658v-96.206c0-3.116-3.17-5.22-6.477-5.22-3.469 0-6.664 2.086-6.664 5.22v96.206h-14.658v-97.94c0-7.716 8.28-14.286 18.881-14.286 6.525 0 12.062 2.372 15.407 5.893l.746.32h.188l.728-.301c3.546-3.546 9.098-5.912 15.426-5.912 10.78 0 18.88 6.565 18.88 14.286z" fill="#f49f23"/><g fill="#58585a"><path d="m324.997 266.531h-17.716v-52.125c0-3.538-3.903-5.869-8.108-5.869h-6.604l-1.276 1.185v56.809h-17.717v-124.441h17.717v53.255l1.276 1.185h6.604c4.265 0 8.108-2.536 8.108-6.032v-48.408h17.716v46.47c0 5.106-3.493 9.764-9.348 12.687l-.673 1.045v.321l.673 1.046c5.855 2.921 9.348 7.58 9.348 12.686z"/><path d="m241.11 142.09h17.717v124.441h-17.717z"/><path d="m201.843 154.096h-6.605l-1.276 1.186v40.062l1.276 1.186h6.605c4.264 0 8.107-2.535 8.107-6.032v-30.531c0-3.539-3.903-5.871-8.107-5.871m25.824 112.435h-17.717v-52.125c0-3.538-3.903-5.87-8.107-5.87h-6.605l-1.276 1.186v56.809h-17.716v-124.441h25.597c14.675 0 25.824 8.314 25.824 17.877v28.593c0 5.105-3.495 9.765-9.348 12.686l-.673 1.046v.321l.673 1.046c5.853 2.921 9.348 7.58 9.348 12.686z"/><path d="m145.086 248.492v-34.087c0-3.537-3.904-5.868-8.109-5.868h-6.604l-1.275 1.185v43.616l1.275 1.186h6.604c4.236 0 8.109-2.354 8.109-6.032m0-57.994v-30.531c0-3.539-3.904-5.871-8.109-5.871h-6.604l-1.275 1.186v40.063l1.275 1.185h6.604c4.264 0 8.109-2.536 8.109-6.032m-8.109 76.033h-25.596v-124.441h25.596c14.676 0 25.824 8.314 25.824 17.877v28.593c0 5.105-3.493 9.771-9.371 12.86l-.648 1.033v.16l.671 1.046c5.855 2.921 9.348 7.58 9.348 12.686v32.147c0 9.73-11.156 18.039-25.824 18.039"/><path d="m63.382 158.997v36.348l1.275 1.185h13.437l1.276-1.185v-36.348c0-3.538-3.904-5.87-8.109-5.87-4.006 0-7.879 2.353-7.879 5.87m33.704 107.534h-17.716v-56.809l-1.276-1.185h-13.437l-1.275 1.185v56.809h-17.717v-107.534c0-9.569 11.157-17.875 25.596-17.875 14.676 0 25.825 8.313 25.825 17.875z"/><path d="m17.561 266.531h-17.561v-123.355h37.653v11.901h-20.092v42.064h20.092v11.902h-20.092z"/><path d="m0 120.05h324.997v14.035h-324.997z"/></g></svg>