<?xml version="1.0" encoding="UTF-8" standalone="no"?><!DOCTYPE svg PUBLIC "-//W3C//DTD SVG 1.1//EN" "http://www.w3.org/Graphics/SVG/1.1/DTD/svg11.dtd"><svg width="100%" height="100%" viewBox="0 0 601 135" version="1.1" xmlns="http://www.w3.org/2000/svg" xmlns:xlink="http://www.w3.org/1999/xlink" xml:space="preserve" style="fill-rule:evenodd;clip-rule:evenodd;stroke-linejoin:round;stroke-miterlimit:1.41421;"><g><rect x="310.755" y="1.156" width="14.658" height="111.07" style="fill:#f49f23;fill-rule:nonzero;"/><path d="M279.482,101.427l5.635,0l1.029,-1.029l0,-24.563l-1.029,-1.029l-5.635,0c-3.307,0 -6.477,2.103 -6.477,5.219l0,16.038c0,3.24 3.145,5.364 6.477,5.364m7.813,5.923l-1.491,-0.256l-6.669,5.13c-11.734,-0.143 -20.788,-7.509 -20.788,-16.161l0,-16.038c0,-8.588 9.227,-16.019 21.135,-16.019l5.635,0l1.029,-1.03l0,-21.239c0,-3.133 -3.195,-5.22 -6.664,-5.22c-3.307,0 -6.477,2.105 -6.477,5.22l0,10.529l-14.658,0l0,-10.529c0,-8.587 9.227,-16.019 21.135,-16.019c12.102,0 21.322,7.436 21.322,16.019l0,70.489l-3.103,0c-4.613,0 -8.569,-2.05 -10.406,-4.876" style="fill:#f49f23;"/><path d="M235.797,86.401l14.658,0l0,10.528c0,8.734 -9.226,16.165 -21.323,16.165c-11.901,0 -21.134,-7.426 -21.134,-16.165l0,-55.192c0,-8.587 9.227,-16.019 21.134,-16.019c12.103,0 21.323,7.436 21.323,16.019l0,10.53l-14.658,0l0,-10.53c0,-3.133 -3.195,-5.219 -6.665,-5.219c-3.306,0 -6.476,2.105 -6.476,5.219l0,55.192c0,3.078 3.121,5.366 6.476,5.366c3.519,0 6.665,-2.269 6.665,-5.366l0,-10.528Z" style="fill:#f49f23;"/><rect x="183.39" y="26.441" width="14.657" height="85.786" style="fill:#f49f23;"/><path d="M191.095,12.968c-4.958,0 -8.55,-3.097 -8.55,-6.339c0,-3.398 3.606,-6.484 8.55,-6.484c4.944,0 8.549,3.086 8.549,6.484c0,3.242 -3.591,6.339 -8.549,6.339" style="fill:#f29400;"/><path d="M174.125,84.504l0,12.425c0,8.733 -9.227,16.165 -21.323,16.165c-11.901,0 -21.135,-7.427 -21.135,-16.165l0,-10.529l14.659,0l0,10.529c0,3.078 3.121,5.365 6.476,5.365c3.518,0 6.665,-2.269 6.665,-5.365l0,-12.425c0,-1.549 -0.775,-2.837 -2.091,-3.85l-19.543,-15.175c-4.272,-3.151 -6.166,-6.91 -6.166,-11.316l0,-12.426c0,-8.587 9.228,-16.019 21.135,-16.019c12.102,0 21.323,7.436 21.323,16.019l0,10.529l-14.658,0l0,-10.529c0,-3.133 -3.196,-5.22 -6.665,-5.22c-3.307,0 -6.476,2.105 -6.476,5.22l0,12.426c0,1.641 0.729,2.946 1.903,3.85l19.724,15.17c4.119,3.17 6.172,6.934 6.172,11.321" style="fill:#f49f23;"/><path d="M123.09,26.44l0,85.786l-3.103,0c-4.613,0 -8.569,-2.05 -10.406,-4.876l-1.491,-0.256l-6.669,5.13c-11.734,-0.143 -20.788,-7.509 -20.788,-16.161l0,-69.623l14.658,0l0,69.623c0,3.24 3.146,5.364 6.477,5.364l5.634,0l1.03,-1.029l0,-73.958l14.658,0Z" style="fill:#f49f23;"/><path d="M70.682,112.226l-14.658,0l0,-96.206c0,-3.116 -3.17,-5.22 -6.476,-5.22c-3.47,0 -6.665,2.086 -6.665,5.22l0,96.206l-14.658,0l0,-96.206c0,-3.116 -3.17,-5.22 -6.477,-5.22c-3.469,0 -6.664,2.086 -6.664,5.22l0,96.206l-14.658,0l0,-97.94c0,-7.716 8.28,-14.286 18.881,-14.286c6.525,0 12.062,2.372 15.407,5.893l0.746,0.32l0.188,0l0.728,-0.301c3.546,-3.546 9.098,-5.912 15.426,-5.912c10.78,0 18.88,6.565 18.88,14.286l0,97.94Z" style="fill:#f49f23;"/><path d="M600.152,134.069l-14.295,0l0,-45.263c0,-3.072 -3.15,-5.096 -6.543,-5.096l-5.329,0l-1.029,1.029l0,49.33l-14.296,0l0,-108.058l14.296,0l0,46.244l1.029,1.029l5.329,0c3.442,0 6.543,-2.202 6.543,-5.238l0,-42.035l14.295,0l0,40.352c0,4.434 -2.819,8.479 -7.543,11.017l-0.543,0.907l0,0.279l0.543,0.908c4.724,2.537 7.543,6.582 7.543,11.016l0,43.579Z" style="fill:#58585a;"/><rect x="532.463" y="26.011" width="14.296" height="108.058" style="fill:#58585a;"/><path d="M500.777,36.436l-5.329,0l-1.03,1.03l0,34.788l1.03,1.03l5.329,0c3.441,0 6.542,-2.202 6.542,-5.238l0,-26.512c0,-3.073 -3.149,-5.098 -6.542,-5.098m20.838,97.633l-14.296,0l0,-45.263c0,-3.072 -3.149,-5.097 -6.542,-5.097l-5.329,0l-1.03,1.03l0,49.33l-14.295,0l0,-108.058l20.654,0c11.842,0 20.838,7.219 20.838,15.523l0,24.829c0,4.433 -2.82,8.479 -7.543,11.016l-0.543,0.908l0,0.279l0.543,0.908c4.723,2.537 7.543,6.582 7.543,11.016l0,43.579Z" style="fill:#58585a;"/><path d="M454.979,118.405l0,-29.599c0,-3.072 -3.15,-5.096 -6.543,-5.096l-5.329,0l-1.029,1.029l0,37.874l1.029,1.03l5.329,0c3.418,0 6.543,-2.044 6.543,-5.238m0,-50.359l0,-26.512c0,-3.073 -3.15,-5.098 -6.543,-5.098l-5.329,0l-1.029,1.03l0,34.789l1.029,1.029l5.329,0c3.441,0 6.543,-2.202 6.543,-5.238m-6.543,66.023l-20.654,0l0,-108.058l20.654,0c11.842,0 20.838,7.219 20.838,15.523l0,24.829c0,4.433 -2.819,8.485 -7.562,11.167l-0.523,0.897l0,0.139l0.542,0.908c4.724,2.537 7.543,6.582 7.543,11.016l0,27.915c0,8.449 -9.002,15.664 -20.838,15.664" style="fill:#58585a;"/><path d="M389.052,40.692l0,31.563l1.029,1.029l10.842,0l1.03,-1.029l0,-31.563c0,-3.072 -3.15,-5.097 -6.543,-5.097c-3.233,0 -6.358,2.043 -6.358,5.097m27.196,93.377l-14.295,0l0,-49.33l-1.03,-1.029l-10.842,0l-1.029,1.029l0,49.33l-14.296,0l0,-93.377c0,-8.309 9.003,-15.522 20.654,-15.522c11.842,0 20.838,7.219 20.838,15.522l0,93.377Z" style="fill:#58585a;"/><path d="M351.935,134.069l-14.295,0l0,-108.058l30.65,0l0,10.425l-16.355,0l0,36.848l16.356,0l0,10.426l-16.356,0l0,50.359Z" style="fill:#58585a;"/><rect x="0" y="120.05" width="324.649" height="14.035" style="fill:#58585a;"/></g></svg>