<?xml version="1.0" encoding="UTF-8" standalone="no"?><!DOCTYPE svg PUBLIC "-//W3C//DTD SVG 1.1//EN" "http://www.w3.org/Graphics/SVG/1.1/DTD/svg11.dtd"><svg width="100%" height="100%" viewBox="0 0 648 648" version="1.1" xmlns="http://www.w3.org/2000/svg" xmlns:xlink="http://www.w3.org/1999/xlink" xml:space="preserve" style="fill-rule:evenodd;clip-rule:evenodd;stroke-linejoin:round;stroke-miterlimit:1.41421;"><g><rect x="618.504" y="2.809" width="29.211" height="269.921" style="fill:#f49f23;fill-rule:nonzero;"/><path d="M556.181,246.487l11.23,0l2.051,-2.501l0,-59.692l-2.051,-2.501l-11.23,0c-6.59,0 -12.908,5.111 -12.908,12.683l0,38.975c0,7.874 6.268,13.036 12.908,13.036m15.57,14.394l-2.971,-0.622l-13.29,12.467c-23.384,-0.348 -41.428,-18.249 -41.428,-39.275l0,-38.975c0,-20.87 18.388,-38.929 42.119,-38.929l11.23,0l2.051,-2.503l0,-51.615c0,-7.614 -6.368,-12.685 -13.281,-12.685c-6.59,0 -12.908,5.115 -12.908,12.685l0,25.588l-29.211,0l0,-25.588c0,-20.868 18.388,-38.929 42.119,-38.929c24.118,0 42.492,18.071 42.492,38.929l0,171.301l-6.184,0c-9.193,0 -17.077,-4.981 -20.738,-11.849" style="fill:#f49f23;"/><path d="M469.124,209.97l29.211,0l0,25.585c0,21.225 -18.386,39.284 -42.493,39.284c-23.717,0 -42.117,-18.047 -42.117,-39.284l0,-134.127c0,-20.868 18.388,-38.929 42.117,-38.929c24.119,0 42.493,18.071 42.493,38.929l0,25.59l-29.211,0l0,-25.59c0,-7.614 -6.367,-12.683 -13.282,-12.683c-6.588,0 -12.906,5.116 -12.906,12.683l0,134.127c0,7.48 6.22,13.04 12.906,13.04c7.013,0 13.282,-5.514 13.282,-13.04l0,-25.585Z" style="fill:#f49f23;"/><rect x="364.684" y="64.256" width="29.209" height="208.476" style="fill:#f49f23;"/><path d="M380.039,31.514c-9.881,0 -17.039,-7.526 -17.039,-15.405c0,-8.258 7.186,-15.757 17.039,-15.757c9.852,0 17.036,7.499 17.036,15.757c0,7.879 -7.156,15.405 -17.036,15.405" style="fill:#f29400;"/><path d="M346.222,205.361l0,30.195c0,21.223 -18.389,39.284 -42.494,39.284c-23.717,0 -42.119,-18.049 -42.119,-39.284l0,-25.587l29.213,0l0,25.587c0,7.48 6.22,13.038 12.906,13.038c7.011,0 13.282,-5.514 13.282,-13.038l0,-30.195c0,-3.764 -1.544,-6.894 -4.167,-9.356l-38.946,-36.878c-8.515,-7.658 -12.288,-16.793 -12.288,-27.5l0,-30.198c0,-20.868 18.39,-38.929 42.119,-38.929c24.117,0 42.494,18.071 42.494,38.929l0,25.588l-29.212,0l0,-25.588c0,-7.613 -6.369,-12.685 -13.282,-12.685c-6.59,0 -12.906,5.115 -12.906,12.685l0,30.198c0,3.988 1.453,7.159 3.793,9.356l39.307,36.866c8.208,7.704 12.3,16.851 12.3,27.512" style="fill:#f49f23;"/><path d="M244.515,64.255l0,208.476l-6.184,0c-9.193,0 -17.077,-4.982 -20.737,-11.85l-2.972,-0.622l-13.29,12.467c-23.384,-0.348 -41.428,-18.248 -41.428,-39.274l0,-169.197l29.212,0l0,169.197c0,7.873 6.269,13.035 12.907,13.035l11.228,0l2.053,-2.501l0,-179.731l29.211,0Z" style="fill:#f49f23;"/><path d="M140.073,272.73l-29.211,0l0,-233.798c0,-7.573 -6.317,-12.686 -12.906,-12.686c-6.915,0 -13.282,5.069 -13.282,12.686l0,233.798l-29.211,0l0,-233.798c0,-7.573 -6.318,-12.686 -12.908,-12.686c-6.913,0 -13.28,5.069 -13.28,12.686l0,233.798l-29.212,0l0,-238.012c0,-18.752 16.501,-34.718 37.628,-34.718c13.003,0 24.037,5.764 30.703,14.321l1.487,0.778l0.375,0l1.45,-0.732c7.067,-8.617 18.131,-14.367 30.742,-14.367c21.483,0 37.625,15.954 37.625,34.718l0,238.012Z" style="fill:#f49f23;"/><path d="M647.671,647.719l-35.305,0l0,-126.674c0,-8.597 -7.779,-14.262 -16.159,-14.262l-13.161,0l-2.542,2.88l0,138.056l-35.307,0l0,-302.414l35.307,0l0,129.42l2.542,2.88l13.161,0c8.501,0 16.159,-6.163 16.159,-14.659l0,-117.641l35.305,0l0,112.931c0,12.409 -6.962,23.729 -18.629,30.832l-1.341,2.538l0,0.781l1.341,2.541c11.667,7.1 18.629,18.421 18.629,30.83l0,121.961Z" style="fill:#fff;"/><rect x="480.497" y="345.305" width="35.307" height="302.414" style="fill:#fff;"/><path d="M402.242,374.482l-13.161,0l-2.544,2.882l0,97.359l2.544,2.882l13.161,0c8.499,0 16.157,-6.162 16.157,-14.659l0,-74.197c0,-8.6 -7.777,-14.267 -16.157,-14.267m51.464,273.238l-35.307,0l0,-126.674c0,-8.598 -7.777,-14.265 -16.157,-14.265l-13.161,0l-2.544,2.883l0,138.056l-35.304,0l0,-302.414l51.009,0c29.247,0 51.464,20.203 51.464,43.443l0,69.487c0,12.406 -6.964,23.73 -18.629,30.83l-1.341,2.541l0,0.781l1.341,2.541c11.665,7.1 18.629,18.42 18.629,30.829l0,121.962Z" style="fill:#fff;"/><path d="M289.134,603.881l0,-82.836c0,-8.597 -7.779,-14.262 -16.159,-14.262l-13.161,0l-2.542,2.88l0,105.995l2.542,2.883l13.161,0c8.441,0 16.159,-5.721 16.159,-14.66m0,-140.935l0,-74.198c0,-8.6 -7.779,-14.267 -16.159,-14.267l-13.161,0l-2.542,2.883l0,97.361l2.542,2.88l13.161,0c8.498,0 16.159,-6.163 16.159,-14.659m-16.159,184.773l-51.01,0l0,-302.414l51.01,0c29.246,0 51.464,20.204 51.464,43.443l0,69.487c0,12.407 -6.962,23.747 -18.676,31.253l-1.292,2.51l0,0.389l1.339,2.541c11.667,7.1 18.629,18.421 18.629,30.83l0,78.123c0,23.646 -22.232,43.838 -51.464,43.838" style="fill:#fff;"/><path d="M126.311,386.392l0,88.333l2.541,2.88l26.777,0l2.544,-2.88l0,-88.333c0,-8.597 -7.78,-14.264 -16.16,-14.264c-7.984,0 -15.702,5.717 -15.702,14.264m67.167,261.327l-35.305,0l0,-138.056l-2.544,-2.88l-26.777,0l-2.541,2.88l0,138.056l-35.307,0l0,-261.327c0,-23.253 22.235,-43.44 51.009,-43.44c29.247,0 51.465,20.203 51.465,43.44l0,261.327Z" style="fill:#fff;"/><path d="M34.997,647.719l-34.997,0l0,-299.775l75.037,0l0,28.921l-40.04,0l0,102.224l40.04,0l0,28.924l-40.04,0l0,139.706Z" style="fill:#fff;"/><rect x="0" y="291.743" width="647.671" height="34.108" style="fill:#fff;"/></g></svg>