<svg clip-rule="evenodd" fill-rule="evenodd" stroke-linejoin="round" stroke-miterlimit="1.41421" viewBox="0 0 648 648" xmlns="http://www.w3.org/2000/svg"><path d="m618.504 2.809h29.211v269.921h-29.211z" fill="#f49f23" fill-rule="nonzero"/><path d="m556.181 246.487h11.23l2.051-2.501v-59.692l-2.051-2.501h-11.23c-6.59 0-12.908 5.111-12.908 12.683v38.975c0 7.874 6.268 13.036 12.908 13.036m15.57 14.394-2.971-.622-13.29 12.467c-23.384-.348-41.428-18.249-41.428-39.275v-38.975c0-20.87 18.388-38.929 42.119-38.929h11.23l2.051-2.503v-51.615c0-7.614-6.368-12.685-13.281-12.685-6.59 0-12.908 5.115-12.908 12.685v25.588h-29.211v-25.588c0-20.868 18.388-38.929 42.119-38.929 24.118 0 42.492 18.071 42.492 38.929v171.301h-6.184c-9.193 0-17.077-4.981-20.738-11.849" fill="#f49f23"/><path d="m469.124 209.97h29.211v25.585c0 21.225-18.386 39.284-42.493 39.284-23.717 0-42.117-18.047-42.117-39.284v-134.127c0-20.868 18.388-38.929 42.117-38.929 24.119 0 42.493 18.071 42.493 38.929v25.59h-29.211v-25.59c0-7.614-6.367-12.683-13.282-12.683-6.588 0-12.906 5.116-12.906 12.683v134.127c0 7.48 6.22 13.04 12.906 13.04 7.013 0 13.282-5.514 13.282-13.04z" fill="#f49f23"/><path d="m364.684 64.256h29.209v208.476h-29.209z" fill="#f49f23"/><path d="m380.039 31.514c-9.881 0-17.039-7.526-17.039-15.405 0-8.258 7.186-15.757 17.039-15.757 9.852 0 17.036 7.499 17.036 15.757 0 7.879-7.156 15.405-17.036 15.405" fill="#f29400"/><path d="m346.222 205.361v30.195c0 21.223-18.389 39.284-42.494 39.284-23.717 0-42.119-18.049-42.119-39.284v-25.587h29.213v25.587c0 7.48 6.22 13.038 12.906 13.038 7.011 0 13.282-5.514 13.282-13.038v-30.195c0-3.764-1.544-6.894-4.167-9.356l-38.946-36.878c-8.515-7.658-12.288-16.793-12.288-27.5v-30.198c0-20.868 18.39-38.929 42.119-38.929 24.117 0 42.494 18.071 42.494 38.929v25.588h-29.212v-25.588c0-7.613-6.369-12.685-13.282-12.685-6.59 0-12.906 5.115-12.906 12.685v30.198c0 3.988 1.453 7.159 3.793 9.356l39.307 36.866c8.208 7.704 12.3 16.851 12.3 27.512" fill="#f49f23"/><path d="m244.515 64.255v208.476h-6.184c-9.193 0-17.077-4.982-20.737-11.85l-2.972-.622-13.29 12.467c-23.384-.348-41.428-18.248-41.428-39.274v-169.197h29.212v169.197c0 7.873 6.269 13.035 12.907 13.035h11.228l2.053-2.501v-179.731z" fill="#f49f23"/><path d="m140.073 272.73h-29.211v-233.798c0-7.573-6.317-12.686-12.906-12.686-6.915 0-13.282 5.069-13.282 12.686v233.798h-29.211v-233.798c0-7.573-6.318-12.686-12.908-12.686-6.913 0-13.28 5.069-13.28 12.686v233.798h-29.212v-238.012c0-18.752 16.501-34.718 37.628-34.718 13.003 0 24.037 5.764 30.703 14.321l1.487.778h.375l1.45-.732c7.067-8.617 18.131-14.367 30.742-14.367 21.483 0 37.625 15.954 37.625 34.718z" fill="#f49f23"/><g fill="#fff"><path d="m647.671 647.719h-35.305v-126.674c0-8.597-7.779-14.262-16.159-14.262h-13.161l-2.542 2.88v138.056h-35.307v-302.414h35.307v129.42l2.542 2.88h13.161c8.501 0 16.159-6.163 16.159-14.659v-117.641h35.305v112.931c0 12.409-6.962 23.729-18.629 30.832l-1.341 2.538v.781l1.341 2.541c11.667 7.1 18.629 18.421 18.629 30.83z"/><path d="m480.497 345.305h35.307v302.414h-35.307z"/><path d="m402.242 374.482h-13.161l-2.544 2.882v97.359l2.544 2.882h13.161c8.499 0 16.157-6.162 16.157-14.659v-74.197c0-8.6-7.777-14.267-16.157-14.267m51.464 273.238h-35.307v-126.674c0-8.598-7.777-14.265-16.157-14.265h-13.161l-2.544 2.883v138.056h-35.304v-302.414h51.009c29.247 0 51.464 20.203 51.464 43.443v69.487c0 12.406-6.964 23.73-18.629 30.83l-1.341 2.541v.781l1.341 2.541c11.665 7.1 18.629 18.42 18.629 30.829z"/><path d="m289.134 603.881v-82.836c0-8.597-7.779-14.262-16.159-14.262h-13.161l-2.542 2.88v105.995l2.542 2.883h13.161c8.441 0 16.159-5.721 16.159-14.66m0-140.935v-74.198c0-8.6-7.779-14.267-16.159-14.267h-13.161l-2.542 2.883v97.361l2.542 2.88h13.161c8.498 0 16.159-6.163 16.159-14.659m-16.159 184.773h-51.01v-302.414h51.01c29.246 0 51.464 20.204 51.464 43.443v69.487c0 12.407-6.962 23.747-18.676 31.253l-1.292 2.51v.389l1.339 2.541c11.667 7.1 18.629 18.421 18.629 30.83v78.123c0 23.646-22.232 43.838-51.464 43.838"/><path d="m126.311 386.392v88.333l2.541 2.88h26.777l2.544-2.88v-88.333c0-8.597-7.78-14.264-16.16-14.264-7.984 0-15.702 5.717-15.702 14.264m67.167 261.327h-35.305v-138.056l-2.544-2.88h-26.777l-2.541 2.88v138.056h-35.307v-261.327c0-23.253 22.235-43.44 51.009-43.44 29.247 0 51.465 20.203 51.465 43.44z"/><path d="m34.997 647.719h-34.997v-299.775h75.037v28.921h-40.04v102.224h40.04v28.924h-40.04z"/><path d="m0 291.743h647.671v34.108h-647.671z"/></g></svg>