<svg clip-rule="evenodd" fill-rule="evenodd" stroke-linejoin="round" stroke-miterlimit="2" viewBox="0 0 1440 563" xmlns="http://www.w3.org/2000/svg"><g fill="#fd8e00"><path d="m3.765 551.566 1436.24 100.968v-201.937l-1436.24 100.969z" fill-opacity=".3"/><path d="m3.765 567.172 1436.24 85.362v-170.724l-1436.24 85.362z"/><path d="m947.992 3.133h25.336v234.117h-25.336z" fill-rule="nonzero"/><path d="m893.936 214.489h9.74l1.779-2.169v-51.775l-1.779-2.169h-9.74c-5.716 0-11.196 4.433-11.196 11.001v33.805c0 6.83 5.437 11.307 11.196 11.307m13.505 12.485-2.577-.54-11.528 10.813c-20.282-.301-35.932-15.828-35.932-34.065v-33.805c0-18.102 15.949-33.765 36.532-33.765h9.74l1.779-2.171v-44.769c0-6.604-5.523-11.003-11.519-11.003-5.716 0-11.196 4.437-11.196 11.003v22.194h-25.336v-22.194c0-18.1 15.949-33.765 36.532-33.765 20.918 0 36.855 15.674 36.855 33.765v148.579h-5.363c-7.974 0-14.812-4.321-17.987-10.277"/><path d="m818.427 182.816h25.336v22.191c0 18.41-15.947 34.073-36.857 34.073-20.571 0-36.53-15.653-36.53-34.073v-116.336c0-18.1 15.949-33.765 36.53-33.765 20.92 0 36.857 15.674 36.857 33.765v22.196h-25.336v-22.196c0-6.603-5.523-11-11.521-11-5.714 0-11.194 4.437-11.194 11v116.336c0 6.488 5.395 11.311 11.194 11.311 6.083 0 11.521-4.783 11.521-11.311z"/><path d="m727.84 56.43h25.335v180.823h-25.335z"/><path d="m741.158 28.031c-8.57 0-14.779-6.528-14.779-13.362 0-7.162 6.233-13.667 14.779-13.667s14.777 6.505 14.777 13.667c0 6.834-6.207 13.362-14.777 13.362"/><path d="m711.827 178.818v26.19c0 18.408-15.949 34.073-36.858 34.073-20.57 0-36.532-15.655-36.532-34.073v-22.193h25.339v22.193c0 6.488 5.394 11.309 11.193 11.309 6.081 0 11.521-4.783 11.521-11.309v-26.19c0-3.265-1.34-5.98-3.614-8.115l-33.781-31.986c-7.385-6.642-10.658-14.566-10.658-23.853v-26.192c0-18.1 15.951-33.765 36.532-33.765 20.919 0 36.858 15.674 36.858 33.765v22.194h-25.337v-22.194c0-6.603-5.524-11.002-11.521-11.002-5.716 0-11.193 4.437-11.193 11.002v26.192c0 3.459 1.26 6.21 3.289 8.116l34.093 31.975c7.12 6.682 10.669 14.616 10.669 23.863"/><path d="m623.611 56.429v180.823h-5.364c-7.973 0-14.811-4.322-17.987-10.278l-2.577-.54-11.527 10.813c-20.283-.301-35.933-15.827-35.933-34.064v-146.754h25.337v146.754c0 6.829 5.438 11.306 11.196 11.306h9.738l1.78-2.169v-155.891z"/><path d="m533.023 237.251h-25.337v-202.786c0-6.568-5.479-11.003-11.194-11.003-5.998 0-11.52 4.397-11.52 11.003v202.786h-25.337v-202.786c0-6.568-5.479-11.003-11.195-11.003-5.996 0-11.519 4.397-11.519 11.003v202.786h-25.336v-206.441c0-16.264 14.312-30.113 32.636-30.113 11.278 0 20.849 5 26.631 12.422l1.289.674h.325l1.258-.634c6.13-7.475 15.726-12.462 26.664-12.462 18.634 0 32.635 13.838 32.635 30.113z"/></g><g fill="#fff"><path d="m973.29 562.5h-30.622v-109.872c0-7.457-6.747-12.37-14.015-12.37h-11.416l-2.204 2.498v119.744h-30.624v-262.3h30.624v112.252l2.204 2.498h11.416c7.373 0 14.015-5.345 14.015-12.715v-102.035h30.622v97.95c0 10.763-6.038 20.582-16.158 26.743l-1.163 2.201v.678l1.163 2.204c10.12 6.158 16.158 15.977 16.158 26.74z"/><path d="m828.291 300.2h30.624v262.3h-30.624z"/><path d="m760.416 325.506h-11.415l-2.206 2.5v84.444l2.206 2.501h11.415c7.371 0 14.014-5.346 14.014-12.715v-64.355c0-7.46-6.745-12.375-14.014-12.375m44.638 236.994h-30.624v-109.871c0-7.457-6.745-12.373-14.014-12.373h-11.415l-2.206 2.5v119.744h-30.622v-262.3h44.243c25.367 0 44.638 17.523 44.638 37.681v60.269c0 10.761-6.041 20.582-16.158 26.741l-1.163 2.204v.677l1.163 2.204c10.117 6.158 16.158 15.977 16.158 26.74z"/><path d="m662.312 524.477v-71.849c0-7.457-6.748-12.37-14.016-12.37h-11.416l-2.204 2.498v91.935l2.204 2.5h11.416c7.321 0 14.016-4.961 14.016-12.714m0-122.242v-64.355c0-7.459-6.748-12.375-14.016-12.375h-11.416l-2.204 2.5v84.447l2.204 2.498h11.416c7.371 0 14.016-5.345 14.016-12.715m-14.016 160.265h-44.244v-262.3h44.244c25.367 0 44.637 17.523 44.637 37.68v60.27c0 10.761-6.038 20.596-16.198 27.107l-1.121 2.177v.338l1.161 2.204c10.12 6.158 16.158 15.977 16.158 26.74v67.761c0 20.509-19.283 38.023-44.637 38.023"/><path d="m521.086 335.836v76.616l2.204 2.498h23.225l2.207-2.498v-76.616c0-7.456-6.748-12.372-14.016-12.372-6.926 0-13.62 4.959-13.62 12.372m58.257 226.664h-30.621v-119.744l-2.207-2.498h-23.225l-2.204 2.498v119.744h-30.624v-226.664c0-20.169 19.286-37.678 44.244-37.678 25.367 0 44.637 17.524 44.637 37.678z"/><path d="m441.884 562.5h-30.354v-260.012h65.083v25.085h-34.729v88.665h34.729v25.087h-34.729z"/><path d="m411.53 253.742h561.761v29.583h-561.761z"/><path d="m1440 562.146-1440 54.688v-109.375z"/></g></svg>