<svg clip-rule="evenodd" fill-rule="evenodd" stroke-linejoin="round" stroke-miterlimit="2" viewBox="0 0 1910 242" xmlns="http://www.w3.org/2000/svg"><path d="m104.41 243.069 104.409 457.311h-208.819z" fill="#fd8e00" fill-opacity=".3" transform="matrix(0 1.28939 4.18748 0 -1012.831692 121.801)"/><path d="m104.41 243.069 104.409 457.311h-208.819z" fill="#fd8e00" transform="matrix(0 1.09009 4.18748 0 -1012.831692 163.418)"/><g transform="matrix(1.787 .0647251 -.0647251 1.787 11.285108 -141.978)"><g fill="#fd8e00"><path d="m432.673 75.508h14.658v111.07h-14.658z" fill-rule="nonzero"/><path d="m401.4 175.779h5.635l1.029-1.029v-24.562l-1.029-1.03h-5.635c-3.307 0-6.477 2.103-6.477 5.22v16.037c0 3.241 3.145 5.364 6.477 5.364m7.813 5.923-1.491-.256-6.669 5.13c-11.734-.143-20.788-7.508-20.788-16.161v-16.037c0-8.589 9.227-16.019 21.135-16.019h5.635l1.029-1.03v-21.24c0-3.133-3.195-5.22-6.664-5.22-3.307 0-6.477 2.105-6.477 5.22v10.529h-14.658v-10.529c0-8.587 9.227-16.019 21.135-16.019 12.102 0 21.322 7.436 21.322 16.019v70.49h-3.103c-4.613 0-8.569-2.051-10.406-4.877"/><path d="m357.715 160.753h14.658v10.528c0 8.734-9.226 16.165-21.323 16.165-11.901 0-21.134-7.426-21.134-16.165v-55.192c0-8.587 9.227-16.019 21.134-16.019 12.103 0 21.323 7.436 21.323 16.019v10.53h-14.658v-10.53c0-3.133-3.195-5.219-6.665-5.219-3.306 0-6.476 2.105-6.476 5.219v55.192c0 3.078 3.121 5.366 6.476 5.366 3.519 0 6.665-2.269 6.665-5.366z"/><path d="m305.308 100.793h14.657v85.786h-14.657z"/><path d="m313.013 87.32c-4.958 0-8.55-3.097-8.55-6.339 0-3.398 3.606-6.484 8.55-6.484s8.549 3.086 8.549 6.484c0 3.242-3.591 6.339-8.549 6.339"/><path d="m296.044 158.857v12.425c0 8.733-9.227 16.165-21.323 16.165-11.901 0-21.135-7.427-21.135-16.165v-10.529h14.659v10.529c0 3.078 3.121 5.365 6.476 5.365 3.518 0 6.665-2.269 6.665-5.365v-12.425c0-1.549-.775-2.837-2.092-3.85l-19.543-15.175c-4.272-3.151-6.165-6.91-6.165-11.316v-12.426c0-8.587 9.227-16.019 21.135-16.019 12.102 0 21.323 7.436 21.323 16.019v10.529h-14.658v-10.529c0-3.133-3.196-5.22-6.665-5.22-3.307 0-6.476 2.105-6.476 5.22v12.426c0 1.641.729 2.946 1.903 3.85l19.723 15.17c4.12 3.17 6.173 6.934 6.173 11.321"/><path d="m245.008 100.793v85.786h-3.103c-4.613 0-8.569-2.05-10.406-4.876l-1.491-.256-6.669 5.13c-11.734-.143-20.788-7.509-20.788-16.161v-69.623h14.658v69.623c0 3.24 3.146 5.364 6.477 5.364h5.634l1.03-1.029v-73.958z"/><path d="m192.6 186.578h-14.658v-96.206c0-3.116-3.17-5.22-6.476-5.22-3.47 0-6.665 2.086-6.665 5.22v96.206h-14.658v-96.206c0-3.116-3.17-5.22-6.477-5.22-3.469 0-6.664 2.086-6.664 5.22v96.206h-14.658v-97.94c0-7.716 8.28-14.286 18.881-14.286 6.525 0 12.062 2.372 15.407 5.893l.746.32h.188l.728-.301c3.546-3.546 9.098-5.912 15.426-5.912 10.78 0 18.88 6.565 18.88 14.286z"/></g><path d="m722.07 208.421h-14.295v-45.263c0-3.072-3.15-5.096-6.543-5.096h-5.329l-1.029 1.029v49.33h-14.296v-108.058h14.296v46.244l1.029 1.029h5.329c3.442 0 6.543-2.202 6.543-5.238v-42.035h14.295v40.352c0 4.434-2.819 8.479-7.543 11.017l-.543.907v.279l.543.908c4.724 2.537 7.543 6.582 7.543 11.016z" fill="#fff"/><path d="m654.381 100.363h14.296v108.058h-14.296z" fill="#fff"/><path d="m622.695 110.788h-5.329l-1.03 1.03v34.788l1.03 1.03h5.329c3.441 0 6.542-2.202 6.542-5.238v-26.512c0-3.073-3.149-5.098-6.542-5.098m20.838 97.633h-14.296v-45.263c0-3.072-3.149-5.097-6.542-5.097h-5.329l-1.03 1.03v49.33h-14.295v-108.058h20.654c11.842 0 20.838 7.219 20.838 15.523v24.829c0 4.433-2.82 8.479-7.543 11.016l-.543.908v.279l.543.908c4.723 2.537 7.543 6.582 7.543 11.016z" fill="#fff"/><path d="m576.897 192.757v-29.599c0-3.072-3.15-5.096-6.543-5.096h-5.328l-1.029 1.029v37.874l1.029 1.03h5.328c3.418 0 6.543-2.044 6.543-5.238m0-50.359v-26.512c0-3.073-3.15-5.098-6.543-5.098h-5.328l-1.029 1.03v34.789l1.029 1.029h5.328c3.441 0 6.543-2.202 6.543-5.238m-6.543 66.023h-20.654v-108.058h20.654c11.842 0 20.838 7.219 20.838 15.523v24.829c0 4.433-2.819 8.485-7.562 11.167l-.522.897v.139l.541.908c4.724 2.537 7.543 6.582 7.543 11.016v27.915c0 8.449-9.002 15.664-20.838 15.664" fill="#fff"/><path d="m510.97 115.044v31.563l1.029 1.029h10.842l1.03-1.029v-31.563c0-3.072-3.15-5.097-6.543-5.097-3.233 0-6.358 2.043-6.358 5.097m27.196 93.377h-14.295v-49.33l-1.03-1.029h-10.842l-1.029 1.029v49.33h-14.296v-93.377c0-8.309 9.003-15.522 20.654-15.522 11.842 0 20.838 7.219 20.838 15.522z" fill="#fff"/><path d="m473.854 208.421h-14.295v-108.058h30.65v10.425h-16.355v36.848h16.355v10.426h-16.355z" fill="#fff"/><path d="m121.918 194.402h324.649v14.035h-324.649z" fill="#fff"/></g><path d="m104.41 243.069 104.409 457.311h-208.819z" fill="#fff" transform="matrix(0 .698374 -4.19845 0 2940.518308 197.617)"/></svg>