<svg clip-rule="evenodd" fill-rule="evenodd" stroke-linejoin="round" stroke-miterlimit="2" viewBox="0 0 1440 204" xmlns="http://www.w3.org/2000/svg"><g fill="#fd8e00"><path d="m3.765 193.066 1436.24 100.968v-201.937l-1436.24 100.969z" fill-opacity=".3"/><path d="m3.765 208.672 1436.24 85.362v-170.724l-1436.24 85.362z"/><path d="m584.689 16.466 19.646.711-5.392 148.862-19.645-.712z" fill-rule="nonzero"/><path d="m537.908 149.336 7.552.274 1.429-1.329 1.193-32.921-1.329-1.429-7.553-.274c-4.432-.16-8.783 2.505-8.934 6.681l-.778 21.495c-.158 4.342 3.954 7.342 8.42 7.503m10.184 8.318-1.986-.416-9.187 6.552c-15.72-.761-27.497-11.073-27.077-22.669l.779-21.495c.417-11.51 13.144-21.021 29.104-20.443l7.552.273 1.429-1.33 1.031-28.466c.152-4.199-4.029-7.151-8.678-7.319-4.432-.161-8.783 2.506-8.934 6.681l-.511 14.112-19.646-.712.511-14.111c.417-11.509 13.145-21.022 29.104-20.444 16.22.588 28.216 11.001 27.799 22.505l-3.421 94.473-4.159-.151c-6.183-.224-11.385-3.163-13.71-7.04"/><path d="m480.089 127.077 19.646.711-.511 14.11c-.424 11.706-13.15 21.217-29.363 20.63-15.951-.577-27.965-10.978-27.54-22.691l2.679-73.971c.417-11.509 13.144-21.021 29.102-20.443 16.221.587 28.217 11.001 27.801 22.504l-.511 14.113-19.646-.712.511-14.112c.153-4.199-4.028-7.15-8.679-7.319-4.431-.16-8.782 2.507-8.933 6.681l-2.679 73.971c-.149 4.125 3.922 7.343 8.419 7.506 4.716.171 9.043-2.718 9.193-6.868z"/><path d="m412.761 44.171 19.644.711-4.164 114.975-19.644-.711z"/><path d="m423.741 26.488c-6.645-.241-11.308-4.566-11.151-8.911.165-4.554 5.148-8.515 11.774-8.275s11.308 4.551 11.143 9.105c-.158 4.345-5.121 8.321-11.766 8.081"/><path d="m397.526 121.541-.603 16.653c-.424 11.704-13.152 21.217-29.363 20.63-15.951-.578-27.966-10.98-27.542-22.692l.511-14.111 19.647.712-.511 14.111c-.149 4.125 3.922 7.342 8.419 7.505 4.715.171 9.043-2.718 9.193-6.867l.603-16.653c.076-2.076-.901-3.84-2.615-5.261l-25.456-21.287c-5.574-4.431-7.929-9.56-7.715-15.466l.603-16.654c.417-11.508 13.146-21.021 29.104-20.443 16.22.587 28.217 11.001 27.801 22.505l-.511 14.111-19.646-.712.511-14.111c.153-4.199-4.03-7.151-8.679-7.32-4.432-.16-8.782 2.507-8.933 6.682l-.603 16.654c-.08 2.199.834 3.984 2.364 5.252l25.698 21.289c5.367 4.449 7.936 9.593 7.723 15.473"/><path d="m331.944 41.243-4.165 114.975-4.158-.151c-6.183-.224-11.385-3.163-13.71-7.04l-1.986-.415-9.187 6.551c-15.72-.761-27.497-11.073-27.077-22.669l3.38-93.312 19.645.712-3.38 93.312c-.157 4.342 3.956 7.342 8.421 7.503l7.551.274 1.43-1.329 3.59-99.122 19.646.711z"/><path d="m257.539 153.673-19.645-.711 4.67-128.94c.151-4.176-3.995-7.15-8.426-7.311-4.651-.168-9.034 2.473-9.186 6.673l-4.67 128.94-19.646-.712 4.671-128.94c.151-4.176-3.996-7.15-8.428-7.31-4.649-.169-9.032 2.472-9.185 6.672l-4.67 128.94-19.645-.711 4.754-131.264c.375-10.342 11.791-18.745 25.999-18.23 8.745.316 16.051 3.764 20.363 8.646l.984.465.252.009.991-.368c4.924-4.581 12.48-7.482 20.961-7.175 14.448.523 24.986 9.715 24.611 20.063z"/></g><path d="m966.102 208.651-19.159-.694 2.197-60.664c.149-4.117-3.974-6.983-8.522-7.147l-7.142-.259-1.429 1.329-2.395 66.115-19.16-.694 5.246-144.825 19.16.694-2.245 61.978 1.329 1.429 7.142.259c4.614.167 8.877-2.634 9.024-6.703l2.041-56.337 19.158.694-1.958 54.082c-.216 5.942-4.19 11.227-10.645 14.399l-.772 1.189-.013.374.684 1.244c6.208 3.629 9.79 9.187 9.574 15.13z" fill="#fff"/><path d="m880.627 60.54 19.16.694-5.245 144.825-19.161-.694z" fill="#fff"/><path d="m837.654 72.974-7.142-.258-1.431 1.33-1.688 46.625 1.33 1.43 7.142.259c4.612.167 8.875-2.634 9.022-6.703l1.287-35.533c.15-4.118-3.972-6.985-8.52-7.15m23.189 131.864-19.161-.694 2.198-60.663c.149-4.118-3.973-6.984-8.521-7.149l-7.142-.259-1.43 1.331-2.395 66.114-19.159-.694 5.246-144.825 27.681 1.003c15.871.575 27.578 10.687 27.175 21.816l-1.206 33.277c-.215 5.942-4.191 11.228-10.644 14.398l-.772 1.191-.013.374.683 1.243c6.207 3.63 9.79 9.188 9.575 15.131z" fill="#fff"/><path d="m772.294 180.61 1.437-39.67c.149-4.118-3.974-6.983-8.522-7.148l-7.142-.259-1.429 1.33-1.838 50.76 1.329 1.431 7.142.258c4.581.166 8.868-2.422 9.023-6.702m2.445-67.494 1.287-35.533c.149-4.118-3.974-6.985-8.522-7.15l-7.142-.259-1.429 1.331-1.689 46.626 1.329 1.429 7.143.259c4.611.167 8.876-2.634 9.023-6.703m-11.974 88.17-27.682-1.003 5.246-144.825 27.681 1.003c15.872.575 27.578 10.687 27.175 21.816l-1.205 33.277c-.216 5.942-4.19 11.236-10.677 14.6l-.745 1.177-.007.186.683 1.243c6.208 3.63 9.79 9.188 9.574 15.131l-1.355 37.413c-.41 11.323-12.825 20.556-28.688 19.982" fill="#fff"/><path d="m687.707 73.255-1.532 42.302 1.329 1.429 14.531.526 1.431-1.329 1.532-42.302c.149-4.117-3.975-6.984-8.522-7.149-4.333-.157-8.62 2.429-8.769 6.523m31.917 126.468-19.159-.694 2.395-66.114-1.331-1.429-14.531-.527-1.429 1.33-2.395 66.114-19.16-.694 4.533-125.148c.403-11.137 12.82-20.367 28.435-19.801 15.871.575 27.578 10.687 27.175 21.815z" fill="#fff"/><path d="m633.429 196.601-19.158-.694 5.245-144.824 41.079 1.488-.506 13.972-21.92-.794-1.789 49.385 21.92.794-.506 13.974-21.92-.794z" fill="#fff"/><path d="m162.429 160.728 435.11 15.76-.681 18.81-435.111-15.76z" fill="#fff"/><path d="m1440 203.646-1440 54.688v-109.375z" fill="#fff"/></svg>