<?xml version="1.0" encoding="UTF-8" standalone="no"?><!DOCTYPE svg PUBLIC "-//W3C//DTD SVG 1.1//EN" "http://www.w3.org/Graphics/SVG/1.1/DTD/svg11.dtd"><svg width="100%" height="100%" viewBox="0 0 5120 1832" version="1.1" xmlns="http://www.w3.org/2000/svg" xmlns:xlink="http://www.w3.org/1999/xlink" xml:space="preserve" xmlns:serif="http://www.serif.com/" style="fill-rule:evenodd;clip-rule:evenodd;stroke-linecap:round;stroke-linejoin:round;stroke-miterlimit:1.5;"><g id="Karawane"><path id="Seil" d="M4083.02,238.221c9.938,-4.228 79.675,185.063 220.524,40.829" style="fill:none;stroke:#000;stroke-width:5.5px;"/><path id="Seil1" serif:id="Seil" d="M3509.57,255.433c0,0 191.37,178.924 241.996,-55.234" style="fill:none;stroke:#000;stroke-width:5.5px;"/><path id="Seil2" serif:id="Seil" d="M2914.34,479.341c0,0 273.696,69.531 252.608,-245.762" style="fill:none;stroke:#000;stroke-width:5.5px;"/><path d="M4521.45,239.51c0,0 -28.993,-8.331 -46.036,-5.637c-17.043,2.694 -31.591,-0.297 -44.061,26.438c-12.47,26.734 -11.43,28.58 -19.329,36.761c-7.899,8.181 -20.369,8.13 -35.436,0.448c-15.068,-7.682 -51.648,-36.711 -56.116,-44.144c-4.469,-7.433 -13.926,-25.689 -27.331,-27.584c-13.404,-1.896 -20.475,-2.408 -32.501,9.814c-6.156,6.257 -7.99,6.634 -14.801,6.791c-6.81,0.157 -12.397,1.191 -15.976,4.047c-4.367,3.486 -4.944,7.303 -5.766,16.322c-0.524,5.752 6.128,5.362 12.139,6.041c6.012,0.68 17.935,0.486 22.129,17.849c4.193,17.363 28.95,31.138 43.5,39.456c14.55,8.318 48.804,15.738 60.626,17.751c11.821,2.013 22.209,1.648 36.274,32.617c2.324,5.115 -6.083,5.398 -18.915,21.064c-12.832,15.666 -8.892,8.974 -13.288,21.56c-4.395,12.586 -12.307,44.708 -14.025,52.396c-1.718,7.688 -2.88,18.989 -3.689,24.033c-0.808,5.044 -0.858,15.205 -0.858,15.205l37.487,2.085c0,0 -1.92,-24.736 1.818,-38.073c3.739,-13.337 4.194,-30.192 6.922,-37.661c2.729,-7.469 9.095,-18.963 15.763,-23.498c6.669,-4.536 6.972,-3.735 6.972,-3.735c0,0 1.011,6.329 0.859,18.697c-0.152,12.368 -5.355,19.522 -5.759,33.854c-0.405,14.332 -0.961,28.809 -0.203,37.054c0.758,8.245 1.162,15.497 1.162,15.497l35.215,0.145c0,0 -3.588,-23.329 -3.841,-46.197c-0.252,-22.868 2.323,-23.11 3.587,-37.273c1.264,-14.163 2.476,-32.303 2.476,-33.054c0,-0.751 11.571,4.172 37.286,7.203c25.715,3.031 60.094,-3.102 67.603,-3.879c2.577,-0.266 3.74,-2.619 5.457,3.905c1.717,6.523 11.216,28.299 4.749,60.941c-6.467,32.642 -10.913,46.731 -11.267,49.593c-0.353,2.861 -0.959,4.995 -0.959,4.995l28.948,2.28c0,0 1.315,-30.921 2.426,-42.439c1.111,-11.518 9.474,-44.02 12.68,-50.78c1.667,-3.516 6.82,6.306 8.943,11.834c2.122,5.529 8.387,16.418 15.561,29.756c7.174,13.337 12.223,22.103 9.849,43.952c-2.374,21.85 -0.96,27.864 -0.96,27.864c0,0 26.525,6.863 26.726,6.863c0.202,0 1.263,-54.807 -0.252,-67.878c-1.516,-13.07 -15.511,-21.945 -16.269,-37.708c-0.758,-15.763 -7.099,-27.083 -9.373,-46.822c-2.274,-19.74 -2.172,-18.697 -2.223,-23.257c-0.051,-4.559 -0.859,-5.408 -0.859,-5.408c0,0 20.236,8.141 32.789,2.474c2.526,-1.14 4.741,-7.365 -1.17,-5.812c-5.911,1.552 -12.379,4.753 -24.453,-5.529c-12.074,-10.283 -20.258,-20.371 -20.562,-23.693c-0.303,-3.322 4.61,-3.031 9.359,-8.923c4.749,-5.893 20.056,-32.909 7.376,-60.093c-12.681,-27.184 -34.717,-24.406 -43.709,-23.194c-8.993,1.212 -2.577,0.461 -2.577,0.461c0,0 -1.314,-22.334 -25.817,-22.868c-24.503,-0.535 -31.888,1.521 -38.3,17.093Z" style="fill:url(#_Linear1);"/><path id="Kamel--Kurve-" serif:id="Kamel (Kurve)" d="M3938.47,129.367c0,0 -31.222,-8.762 -52.014,20.191c-20.792,28.952 -56.327,65.516 -72.512,64.429c-16.185,-1.086 -23.136,-2.475 -43.052,-32.273c-19.915,-29.798 -20.704,-33.289 -31.315,-33.302c-10.611,-0.014 -22.566,8.421 -34.205,14.829c-2.884,1.588 -7.85,3.304 -17.903,4.069c-10.053,0.764 -20.966,4.506 -23.737,11.492c-2.771,6.986 0.599,12.541 5.933,15.044c5.334,2.503 22.584,2.051 26.304,2.598c3.72,0.547 9.501,-0.603 14.844,9.854c5.343,10.456 9.395,20.89 11.545,27.448c2.149,6.557 12.182,17.547 28.57,25.131c16.389,7.584 37.448,20.753 77.167,20.408c39.718,-0.345 38.488,0.412 38.488,0.412c0,0 -10.441,52.462 -11.113,58.533c-0.671,6.071 -5.9,25.023 -8.815,38.204c-2.916,13.181 -10.251,39.123 -10.251,39.123l33.708,5.848l-8.854,-30.722c0,0 -0.882,-7.63 3.327,-23.588c4.21,-15.958 14.998,-30.061 18.775,-39.016c3.778,-8.954 10.357,-22.335 11.939,-28.92c1.583,-6.585 5.856,-15.992 5.856,-15.992c0,0 8.657,33.866 21.905,54.985c13.247,21.118 22.076,35.246 32.096,60.526c10.021,25.28 7.465,23.027 7.465,23.027l22.53,-4.467c0,0 -15.284,-23.662 -20.861,-36.473c-5.577,-12.811 -9.244,-19.405 -11.094,-28.132c-1.849,-8.726 -2.338,-15.088 -6.462,-27.816c-4.123,-12.728 -4.574,-18.533 -9.789,-31.172c-5.215,-12.64 -1.199,-3.061 -1.199,-3.061c0,0 92.535,-9.618 111.288,-5.225c18.753,4.392 39.556,27.506 45.052,37.352c5.495,9.847 4.88,30.302 3.551,45.363c-1.329,15.061 -3.708,39.908 -3.708,39.908l23.473,5.206c0,0 2.706,-28.169 2.87,-35.702c0.165,-7.532 1.431,-25.897 1.359,-33.216c-0.031,-3.124 3.58,-3.918 4.123,-5.527c0.543,-1.609 7.501,-11.974 -9.225,-31.613c-2.582,-3.032 -1.85,-4.005 -1.567,-7.075c0.283,-3.07 -0.904,-38.843 0.704,-50.081c1.607,-11.237 0.689,-2.218 0.689,-2.218c0,0 9.947,16.629 34.743,26.096c3.844,1.467 15.176,0.352 18.244,-0.721c3.067,-1.072 2.908,-4.41 0.322,-4.659c-2.586,-0.25 -8.104,2.04 -19.385,-8.129c-11.281,-10.168 -21.995,-14.6 -28.259,-30.32c-6.265,-15.72 1.554,-27.414 -21.041,-45.383c-22.596,-17.97 -14.322,-12.149 -29.683,-16.597c-15.36,-4.448 -31.683,-23.322 -36.646,-30.018c-4.963,-6.696 -11.84,-20.02 -20.067,-21.968c-8.228,-1.949 -14.329,-1.814 -16.426,-1.758c-2.097,0.057 -2.59,-0.319 -3.3,-2.825c-0.71,-2.506 -3.454,-24.398 6.128,-38.8c2.98,-4.479 2.527,-12.422 0.677,-17.735c-1.849,-5.312 -4.408,-9.404 -12.099,-14.609c-4.642,-3.141 -2.807,-5.341 -3.33,-6.859c-0.524,-1.518 1.86,-19.665 -1.378,-24.615c-3.239,-4.95 -3.576,-7.608 -13.804,-7.8c-10.229,-0.193 -13.807,4.916 -15.093,10.899c-1.287,5.983 -1.837,19.239 5.176,24.504c2.374,1.783 2.878,1.808 2.335,3.912c-0.543,2.104 0.704,4.797 -5.329,7.826c-6.033,3.028 -10.307,29.156 -10.307,29.156c0,0 -6.392,26.999 -7.363,52.014Z" style="fill:url(#_Linear2);"/><path id="Kamel" d="M3366.03,153.65c0,0 -46.273,17.915 -55.203,60.799c-8.323,39.971 -45.298,54.468 -61.388,56.006c-16.089,1.538 -35.7,-18.548 -42.188,-28.172c-6.488,-9.624 -19.536,-33.253 -27.043,-39.465c-3.553,-2.94 -5.148,-3.798 -11.469,-3.594c-6.321,0.204 -8.141,0.252 -10.337,0.919c-2.195,0.668 -10.245,6.722 -11.947,8.93c-1.702,2.209 -3.238,4.394 -10.888,5.867c-7.65,1.472 -14.638,3.14 -21.009,4.642c-6.371,1.502 -13.203,-0.265 -19.302,7.286c-6.099,7.551 -5.901,10.747 -6.631,19.545c-0.331,3.984 0.836,3.279 10.138,2.995c9.302,-0.284 15.908,-1.021 21.283,1.744c5.376,2.765 13.165,8.596 19.848,21.109c3.656,6.845 21.821,25.372 42.385,35.223c20.565,9.851 27.986,19.153 58.914,19.166c15.16,0.006 26.104,-4.847 29.629,-6.321c3.525,-1.474 7.753,-1.176 11.04,0.014c3.287,1.191 16.373,11.173 18.897,15.694c2.523,4.521 1.053,26.483 0.025,37.6c-1.029,11.117 -2.667,19.653 -4.202,24.451c-1.534,4.798 -6.122,7.191 -8.099,20.258c-1.976,13.067 2.154,28.509 -2.782,35.96c-4.935,7.45 -18.461,32.401 -23.519,38.882c-5.057,6.482 -5.04,10.233 -10.096,16.017c-5.056,5.784 -5.035,5.824 -9.517,11.525c-4.482,5.702 -17.813,22.68 -18.937,24.602c-1.124,1.923 30.422,-0.01 53.122,-3.87c22.699,-3.861 24.219,-7.108 22.833,-20.957c-1.386,-13.849 -16.554,-14.728 -16.554,-14.728c0,0 -1.285,1.455 -1.285,-6.136c0,-7.591 -0.383,-4.725 -0.383,-4.725c0,0 22.815,-36.064 25.842,-42.848c3.027,-6.784 2.867,-14.773 3.996,-27.861c1.13,-13.087 2.777,-23.339 6.325,-33.496c3.548,-10.157 6.604,-19.436 9.677,-26.534c3.072,-7.098 3.794,-9.597 5.004,-13.503c1.21,-3.905 4.037,2.808 4.037,2.808c0,0 21.525,30.152 29.363,48.349c7.838,18.197 19.765,43.334 24.494,65.426c4.729,22.093 3.843,33.355 3.843,33.515c0,0.159 33.028,-6.113 33.028,-6.113l-15.846,-17.457c0,0 -4.592,-3.395 -7.453,-15.688c-2.862,-12.293 -3.572,-41.616 -13.453,-60.67c-9.881,-19.054 -16.822,-35.405 -23.433,-49.219c-6.61,-13.814 -5.81,-16.047 -5.81,-16.047c0,0 29.97,-2.089 55.181,-13.465c25.211,-11.376 32.603,-15.76 41.347,-17.153c8.743,-1.393 30.672,-2.757 36.577,-0.749c5.904,2.009 2.14,0.78 2.14,0.78c0,0 12.373,26.636 15.627,51.602c3.254,24.967 5.982,27.376 6.396,46.192c0.415,18.816 -0.459,18.605 -6.881,33.387c-6.422,14.783 -10.5,38.899 -10.5,38.899l34.387,-0.902l3.357,-17.64l-7.979,-10.108c0,0 -1.188,-2.691 -0.914,-12.196c0.274,-9.504 7.487,-26.112 4.759,-46.335c-2.727,-20.223 -0.996,-33.828 -2.692,-45.491c-0.639,-4.389 0.241,-7.431 0.241,-7.431c0,0 11.391,2.574 18.607,13.738c7.216,11.165 18.399,19.339 22.485,24.47c4.086,5.13 15.374,15.195 17.153,27.298c1.778,12.103 1.379,11.875 1.416,29.508c0.037,17.634 3.146,34.346 3.146,34.346l16.276,0.463l12.445,-21.861l-11.761,-10.421c0,0 -2.758,0.486 -5.453,-15.245c-2.696,-15.732 -5.04,-26.572 -12.99,-44.671c-2.908,-6.619 -0.053,-16.789 -0.212,-19.515c-0.16,-2.727 -0.479,-3.763 -2.973,-6.259c-2.494,-2.495 -21.266,-20.95 -35.758,-31.955c-14.491,-11.005 -22.654,-20.094 -20.232,-23.442c2.422,-3.348 9.619,3.699 18.562,8.513c8.942,4.815 16.526,7.606 25.914,10.962c9.387,3.357 19.291,3.823 0.246,-6.597c-4.003,-2.19 -25.726,-11.815 -34.315,-29.005c-8.589,-17.189 -15.373,-34.048 -26.638,-48.487c-11.264,-14.439 -7.749,-12.9 -18.968,-21.71c-11.218,-8.81 -1.36,-0.964 -1.36,-0.964c0,0 4.562,-5.076 6.065,-15.821c1.503,-10.744 0.634,-18.176 -2.509,-25.691c-3.142,-7.514 -11.788,-21.219 -26.873,-23.905c-15.085,-2.685 -19.58,-1.877 -28.913,1.226c-1.932,0.642 -2.809,1.103 -4.705,-1.925c-1.896,-3.029 -6.174,-14.742 -23.772,-15.929c-17.599,-1.187 -26.167,1.617 -34.783,8.068c-8.616,6.45 -11.821,9.608 -16.095,23.493Z" style="fill:url(#_Linear3);"/><path id="Karawahnenführer" d="M2917.3,398.771c0,0 -16.181,63.386 -20.749,94.94c-4.011,27.709 -12.139,106.983 -7.685,135.042c0.263,1.654 2.917,0.579 2.917,0.579l-1.218,4.291c0,0 -18.621,2.345 -18.441,8.994c0.18,6.649 -0.2,4.667 2.965,7.483c3.166,2.816 8.259,1.221 18.451,-2.262c10.191,-3.484 24.433,5.616 24.433,5.616l36.927,-7.353l35.967,-10.085c0,0 9.726,-8.597 7.407,-33.231c-2.318,-24.635 -19.496,-50.629 -29.398,-69.531c-2.833,-5.408 -2.928,-10.807 -0.938,-12.868c1.991,-2.061 5.723,-3.054 5.723,-3.054c0,0 -1.898,-18.506 -4.081,-32.047c-2.183,-13.542 -3.102,-35.637 -2.76,-45.352c0.342,-9.715 -1.711,-31.095 -17.523,-44.586c-1.013,-0.864 -1.661,-2.969 -1.661,-2.969c0,0 2.301,-29.217 -31.413,-36.67c-13.825,-3.056 -21.969,-1.747 -25.998,4.031c-4.03,5.779 -1.467,16.962 8.773,25.864c10.24,8.903 9.643,9.659 18.302,13.168Z" style="fill:url(#_Linear4);"/></g><defs><linearGradient id="_Linear1" x1="0" y1="0" x2="1" y2="0" gradientUnits="userSpaceOnUse" gradientTransform="matrix(-91.8131,-337.913,337.913,-91.8131,4480.87,379.846)"><stop offset="0" style="stop-color:#080000;stop-opacity:1"/><stop offset="1" style="stop-color:#3f1500;stop-opacity:1"/></linearGradient><linearGradient id="_Linear2" x1="0" y1="0" x2="1" y2="0" gradientUnits="userSpaceOnUse" gradientTransform="matrix(-324.098,-557.82,557.82,-324.098,4054.8,416.052)"><stop offset="0" style="stop-color:#000;stop-opacity:1"/><stop offset="1" style="stop-color:#3f1500;stop-opacity:1"/></linearGradient><linearGradient id="_Linear3" x1="0" y1="0" x2="1" y2="0" gradientUnits="userSpaceOnUse" gradientTransform="matrix(-380.282,-592.532,592.532,-380.282,3571.77,537.457)"><stop offset="0" style="stop-color:#000;stop-opacity:1"/><stop offset="1" style="stop-color:#3f1500;stop-opacity:1"/></linearGradient><linearGradient id="_Linear4" x1="0" y1="0" x2="1" y2="0" gradientUnits="userSpaceOnUse" gradientTransform="matrix(-212.25,-405.339,405.339,-212.25,3001.34,667.166)"><stop offset="0" style="stop-color:#000;stop-opacity:1"/><stop offset="1" style="stop-color:#3f1500;stop-opacity:1"/></linearGradient></defs></svg>