<?xml version="1.0" encoding="UTF-8" standalone="no"?><!DOCTYPE svg PUBLIC "-//W3C//DTD SVG 1.1//EN" "http://www.w3.org/Graphics/SVG/1.1/DTD/svg11.dtd"><svg width="100%" height="100%" viewBox="0 0 5120 2883" version="1.1" xmlns="http://www.w3.org/2000/svg" xmlns:xlink="http://www.w3.org/1999/xlink" xml:space="preserve" xmlns:serif="http://www.serif.com/" style="fill-rule:evenodd;clip-rule:evenodd;stroke-linejoin:round;stroke-miterlimit:1.41421;"><g id="Leuchtende-Sterne" serif:id="Leuchtende Sterne"><circle cx="2062.23" cy="1245.08" r="8.088" style="fill:#fff;"/><circle cx="347.709" cy="870.763" r="4.699" style="fill:#fff;"/><circle cx="2030.88" cy="791.956" r="6.256" style="fill:#fff;"/><circle cx="3180.18" cy="223.336" r="5.166" style="fill:#fff;"/><circle cx="3653.79" cy="94.025" r="5.212" style="fill:#fff;"/><circle cx="522.756" cy="443.399" r="4.792" style="fill:#fff;"/><circle cx="1992.92" cy="465.795" r="5.542" style="fill:#fff;"/><circle cx="4187.12" cy="1189.42" r="3.663" style="fill:#fff;"/><circle cx="4219.84" cy="186.476" r="5.163" style="fill:#fff;"/><circle cx="4400.01" cy="715.975" r="4.343" style="fill:#fff;"/><circle cx="4954.25" cy="598.396" r="1.79" style="fill:#fff;"/><circle cx="3084.36" cy="1406.28" r="5.463" style="fill:#fff;"/><circle cx="2437.69" cy="666.895" r="5.181" style="fill:#fff;"/><circle cx="2914.56" cy="137.873" r="3.709" style="fill:#fff;"/><circle cx="3452.75" cy="534.55" r="2.569" style="fill:#fff;"/><circle cx="3280.75" cy="914.247" r="2.837" style="fill:#fff;"/><circle cx="947.249" cy="664.107" r="3.829" style="fill:#fff;"/><circle cx="768.691" cy="613.729" r="4.256" style="fill:#fff;"/><circle cx="1979.92" cy="128.745" r="4.832" style="fill:#fff;"/><circle cx="1430.46" cy="293.771" r="2.508" style="fill:#fff;"/><circle cx="2487.45" cy="186.042" r="2.572" style="fill:#fff;"/><circle cx="2783.51" cy="1515.03" r="2.289" style="fill:#fff;"/><circle cx="4277.47" cy="797.231" r="2.86" style="fill:#fff;"/><circle cx="4513.14" cy="532.134" r="2.458" style="fill:#fff;"/><circle cx="4647.51" cy="536.826" r="3.009" style="fill:#fff;"/><circle cx="4798.4" cy="916.377" r="2.033" style="fill:#fff;"/><circle cx="3365.71" cy="290.162" r="3.559" style="fill:#fff;"/><circle cx="2268.93" cy="394.381" r="2.557" style="fill:#fff;"/><circle cx="2885.24" cy="146.769" r="1.994" style="fill:#fff;"/><circle cx="727.017" cy="1211.18" r="3.49" style="fill:#fff;"/><circle cx="308.845" cy="608.248" r="2.789" style="fill:#fff;"/><circle cx="737.326" cy="355.413" r="3.128" style="fill:#fff;"/><circle cx="1463.74" cy="286.549" r="1.617" style="fill:#fff;"/><circle cx="1623.93" cy="179.222" r="2.051" style="fill:#fff;"/><circle cx="2145.01" cy="669.415" r="4.306" style="fill:#fff;"/><circle cx="2865.9" cy="263.029" r="3.463" style="fill:#fff;"/><circle cx="3085.02" cy="187.835" r="2.816" style="fill:#fff;"/><circle cx="2928.71" cy="166.968" r="2.599" style="fill:#fff;"/><circle cx="3600.42" cy="230.692" r="4.034" style="fill:#fff;"/><circle cx="4162.5" cy="1014.29" r="2.015" style="fill:#fff;"/><circle cx="4290.53" cy="781.845" r="2.6" style="fill:#fff;"/><circle cx="4387.78" cy="312.165" r="1.932" style="fill:#fff;"/><circle cx="2771.85" cy="1451.95" r="2.663" style="fill:#fff;"/><circle cx="1308.61" cy="1216.72" r="2.102" style="fill:#fff;"/><circle cx="473.661" cy="1040.23" r="2.852" style="fill:#fff;"/><circle cx="124.166" cy="1620.57" r="4.332" style="fill:#fff;"/><circle cx="171.353" cy="664.631" r="2.443" style="fill:#fff;"/><circle cx="604.085" cy="133.22" r="1.827" style="fill:#fff;"/><circle cx="771.88" cy="497.028" r="3.101" style="fill:#fff;"/><circle cx="1418.67" cy="151.117" r="2.637" style="fill:#fff;"/><circle cx="1739.95" cy="57.486" r="1.417" style="fill:#fff;"/><circle cx="1721.78" cy="114.142" r="3.006" style="fill:#fff;"/><circle cx="1411.03" cy="327.181" r="2.052" style="fill:#fff;"/><circle cx="2432.97" cy="380.077" r="3.452" style="fill:#fff;"/><circle cx="3047.61" cy="181.917" r="2.164" style="fill:#fff;"/><circle cx="3113.31" cy="148.361" r="3.212" style="fill:#fff;"/><circle cx="2556.06" cy="496.448" r="3.171" style="fill:#fff;"/><circle cx="2161.79" cy="576.782" r="3.305" style="fill:#fff;"/><circle cx="3773.34" cy="90.93" r="2.24" style="fill:#fff;"/><circle cx="957.395" cy="403.709" r="2.293" style="fill:#fff;"/><circle cx="740.484" cy="103.67" r="1.117" style="fill:#fff;"/></g></svg>