<?xml version="1.0" encoding="UTF-8" standalone="no"?><!DOCTYPE svg PUBLIC "-//W3C//DTD SVG 1.1//EN" "http://www.w3.org/Graphics/SVG/1.1/DTD/svg11.dtd"><svg width="100%" height="100%" viewBox="0 0 5120 2883" version="1.1" xmlns="http://www.w3.org/2000/svg" xmlns:xlink="http://www.w3.org/1999/xlink" xml:space="preserve" xmlns:serif="http://www.serif.com/" style="fill-rule:evenodd;clip-rule:evenodd;stroke-linejoin:round;stroke-miterlimit:1.41421;"><g id="Ebene-1" serif:id="Ebene 1"><g><rect x="2598.86" y="322.939" width="76.185" height="577.287" style="fill:#f69f23;fill-rule:nonzero;"/><path d="M2436.31,844.101l29.288,0l5.349,-5.348l0,-127.667l-5.349,-5.348l-29.288,0c-17.188,0 -33.664,10.93 -33.664,27.126l0,83.357c0,16.84 16.346,27.88 33.664,27.88m40.608,30.785l-7.749,-1.331l-34.662,26.663c-60.988,-0.743 -108.046,-39.028 -108.046,-83.997l0,-83.357c0,-44.636 47.957,-83.259 109.849,-83.259l29.288,0l5.349,-5.354l0,-110.389c0,-16.284 -16.606,-27.131 -34.637,-27.131c-17.188,0 -33.664,10.94 -33.664,27.131l0,54.724l-76.185,0l0,-54.724c0,-44.631 47.957,-83.259 109.849,-83.259c62.901,0 110.822,38.648 110.822,83.259l0,366.367l-16.128,0c-23.976,0 -44.538,-10.655 -54.086,-25.343" style="fill:#f69f23;"/><path d="M2209.26,766.001l76.185,0l0,54.719c0,45.395 -47.952,84.018 -110.826,84.018c-61.856,0 -109.844,-38.597 -109.844,-84.018l0,-286.86c0,-44.632 47.957,-83.259 109.844,-83.259c62.905,0 110.826,38.648 110.826,83.259l0,54.729l-76.185,0l0,-54.729c0,-16.284 -16.606,-27.126 -34.641,-27.126c-17.183,0 -33.659,10.94 -33.659,27.126l0,286.86c0,15.998 16.221,27.89 33.659,27.89c18.29,0 34.641,-11.793 34.641,-27.89l0,-54.719Z" style="fill:#f69f23;"/><rect x="1936.88" y="454.358" width="76.18" height="445.874" style="fill:#f69f23;"/><path d="M1976.92,384.332c-25.769,0 -44.439,-16.097 -44.439,-32.947c0,-17.661 18.743,-33.701 44.439,-33.701c25.697,0 44.434,16.04 44.434,33.701c0,16.85 -18.665,32.947 -44.434,32.947" style="fill:#f3941f;"/><path d="M1888.72,756.144l0,64.579c0,45.39 -47.957,84.018 -110.826,84.018c-61.856,0 -109.849,-38.602 -109.849,-84.018l0,-54.725l76.19,0l0,54.725c0,15.998 16.221,27.885 33.659,27.885c18.285,0 34.641,-11.793 34.641,-27.885l0,-64.579c0,-8.051 -4.028,-14.745 -10.868,-20.01l-101.575,-78.873c-22.208,-16.377 -32.047,-35.914 -32.047,-58.815l0,-64.584c0,-44.631 47.962,-83.259 109.849,-83.259c62.9,0 110.826,38.649 110.826,83.259l0,54.725l-76.185,0l0,-54.725c0,-16.284 -16.611,-27.131 -34.641,-27.131c-17.188,0 -33.659,10.941 -33.659,27.131l0,64.584c0,8.529 3.789,15.312 9.891,20.011l102.515,78.846c21.409,16.476 32.079,36.04 32.079,58.841" style="fill:#f69f23;"/><path d="M1623.47,454.356l0,445.873l-16.128,0c-23.976,0 -44.537,-10.655 -54.085,-25.343l-7.75,-1.33l-34.662,26.663c-60.987,-0.743 -108.046,-39.028 -108.046,-83.997l0,-361.866l76.185,0l0,361.866c0,16.84 16.352,27.879 33.665,27.879l29.282,0l5.354,-5.348l0,-384.397l76.185,0Z" style="fill:#f69f23;"/><path d="M1351.07,900.228l-76.185,0l0,-500.032c0,-16.195 -16.476,-27.131 -33.659,-27.131c-18.036,0 -34.642,10.842 -34.642,27.131l0,500.032l-76.185,0l0,-500.032c0,-16.195 -16.476,-27.131 -33.664,-27.131c-18.03,0 -34.636,10.842 -34.636,27.131l0,500.032l-76.185,0l0,-509.044c0,-40.104 43.035,-74.252 98.134,-74.252c33.914,0 62.692,12.329 80.078,30.629l3.877,1.663l0.977,0l3.784,-1.564c18.43,-18.431 47.287,-30.728 80.177,-30.728c56.029,0 98.129,34.122 98.129,74.252l0,509.044Z" style="fill:#f69f23;"/><path d="M4103,1013.76l-74.299,0l0,-235.255c0,-15.967 -16.372,-26.486 -34.007,-26.486l-27.698,0l-5.348,5.348l0,256.393l-74.303,0l0,-561.633l74.303,0l0,240.354l5.348,5.348l27.698,0c17.89,0 34.007,-11.445 34.007,-27.224l0,-218.478l74.299,0l0,209.73c0,23.046 -14.652,44.07 -39.205,57.261l-2.822,4.714l0,1.451l2.822,4.719c24.553,13.186 39.205,34.21 39.205,57.256l0,226.502Z" style="fill:#fff;"/><rect x="3751.19" y="452.123" width="74.304" height="561.632" style="fill:#fff;"/><path d="M3586.5,506.308l-27.697,0l-5.354,5.353l0,180.811l5.354,5.354l27.697,0c17.885,0 34.002,-11.445 34.002,-27.225l0,-137.796c0,-15.972 -16.367,-26.497 -34.002,-26.497m108.306,507.448l-74.304,0l0,-235.254c0,-15.967 -16.367,-26.492 -34.002,-26.492l-27.697,0l-5.354,5.353l0,256.393l-74.298,0l0,-561.632l107.349,0c61.549,0 108.306,37.521 108.306,80.681l0,129.049c0,23.04 -14.657,44.07 -39.205,57.256l-2.822,4.719l0,1.45l2.822,4.719c24.548,13.187 39.205,34.21 39.205,57.256l0,226.502Z" style="fill:#fff;"/><path d="M3348.47,932.342l0,-153.841c0,-15.967 -16.372,-26.487 -34.008,-26.487l-27.697,0l-5.348,5.348l0,196.851l5.348,5.353l27.697,0c17.766,0 34.008,-10.624 34.008,-27.224m0,-261.742l0,-137.796c0,-15.972 -16.372,-26.497 -34.008,-26.497l-27.697,0l-5.348,5.353l0,180.817l5.348,5.348l27.697,0c17.885,0 34.008,-11.445 34.008,-27.225m-34.008,343.155l-107.349,0l0,-561.632l107.349,0c61.549,0 108.306,37.521 108.306,80.681l0,129.049c0,23.04 -14.652,44.101 -39.303,58.04l-2.719,4.663l0,0.722l2.817,4.719c24.553,13.186 39.205,34.21 39.205,57.256l0,145.089c0,43.913 -46.788,81.413 -108.306,81.413" style="fill:#fff;"/><path d="M3005.8,528.428l0,164.049l5.349,5.348l56.351,0l5.353,-5.348l0,-164.049c0,-15.967 -16.372,-26.492 -34.007,-26.492c-16.803,0 -33.046,10.619 -33.046,26.492m141.352,485.328l-74.299,0l0,-256.393l-5.353,-5.348l-56.351,0l-5.349,5.348l0,256.393l-74.303,0l0,-485.328c0,-43.186 46.793,-80.676 107.349,-80.676c61.549,0 108.306,37.521 108.306,80.676l0,485.328Z" style="fill:#fff;"/><path d="M2812.89,1013.76l-74.299,0l0,-561.633l159.304,0l0,54.185l-85.005,0l0,191.517l85.005,0l0,54.19l-85.005,0l0,261.741Z" style="fill:#fff;"/><rect x="983.705" y="940.892" width="1687.37" height="72.947" style="fill:#fff;"/></g></g></svg>